<svg width="46" height="29" viewBox="0 0 46 29" fill="none" xmlns="http://www.w3.org/2000/svg">
<path d="M46.0002 22.9332C45.9951 20.2685 44.0373 18.0104 41.4002 17.6278V16.0799C42.6244 16.2116 43.7901 16.6723 44.7736 17.4132C44.9927 17.5775 45.2829 17.6125 45.5347 17.5049C45.7866 17.3973 45.962 17.1635 45.9947 16.8915C46.0275 16.6196 45.9127 16.3508 45.6936 16.1865C44.4452 15.2454 42.9576 14.6737 41.4002 14.5366V12.9665C41.3962 11.9953 40.7826 11.1313 39.8669 10.8076V9.89983C39.8669 9.47641 39.5237 9.13316 39.1002 9.13316C38.6768 9.13316 38.3336 9.47641 38.3336 9.89983V10.6665H27.5236L26.8336 4.44883C26.8319 4.44233 26.8298 4.43594 26.8274 4.42966C26.7714 2.35548 25.0752 0.702393 23.0002 0.699829H3.06691C1.79666 0.699829 0.76691 1.72957 0.76691 2.99983V11.4332C0.774816 13.0904 1.11367 14.7294 1.76358 16.254C1.15685 16.7192 0.615342 17.2638 0.153577 17.8732C-0.100474 18.2119 -0.0318245 18.6924 0.30691 18.9465C0.645645 19.2005 1.12619 19.1319 1.38024 18.7932C1.42854 18.7288 1.48374 18.6728 1.53358 18.6115V22.9332C1.53324 24.3771 2.11699 25.7597 3.15201 26.7665H0.76691C0.343492 26.7665 0.000243485 27.1097 0.000243485 27.5332C0.000243485 27.9566 0.343492 28.2998 0.76691 28.2998H20.7002C21.1237 28.2998 21.4669 27.9566 21.4669 27.5332C21.4669 27.1097 21.1237 26.7665 20.7002 26.7665H10.6485C11.491 25.9436 12.0384 24.8656 12.2056 23.6998H16.8669C16.8974 23.6957 16.9277 23.6895 16.9574 23.6814C17.034 23.686 17.1061 23.6998 17.1828 23.6998H35.3282C35.4954 24.8656 36.0428 25.9436 36.8853 26.7665H23.7669C23.3435 26.7665 23.0002 27.1097 23.0002 27.5332C23.0002 27.9566 23.3435 28.2998 23.7669 28.2998H45.2336C45.657 28.2998 46.0002 27.9566 46.0002 27.5332C46.0002 27.1097 45.657 26.7665 45.2336 26.7665H44.3818C45.4168 25.7597 46.0006 24.3771 46.0002 22.9332ZM35.3282 22.1665H32.9608C33.5215 21.6237 33.9669 20.9734 34.2702 20.2544C35.2411 17.9529 37.3835 16.3588 39.8669 16.0899V17.6278C37.5163 17.9696 35.67 19.8159 35.3282 22.1665ZM17.1828 22.1665C16.1575 22.1614 15.2585 21.4806 14.9755 20.4952C14.7916 19.8895 14.5385 19.3071 14.2211 18.7594C14.9093 18.3459 15.3313 17.6027 15.3336 16.7998V14.4998C15.3336 14.0764 14.9903 13.7332 14.5669 13.7332C14.1435 13.7332 13.8002 14.0764 13.8002 14.4998V16.7998C13.7992 17.1037 13.6187 17.3783 13.3402 17.4998C12.6146 16.6481 11.729 15.9469 10.7336 15.4359V12.1998H20.7002V16.7998C20.7002 18.0701 21.73 19.0998 23.0002 19.0998H24.5336C25.8038 19.0998 26.8336 18.0701 26.8336 16.7998V14.4998C26.8336 14.0764 26.4903 13.7332 26.0669 13.7332C25.6435 13.7332 25.3002 14.0764 25.3002 14.4998V16.7998C25.3002 17.2232 24.957 17.5665 24.5336 17.5665H23.0002C22.5768 17.5665 22.2336 17.2232 22.2336 16.7998V12.1998H39.1002C39.5237 12.1998 39.8669 12.5431 39.8669 12.9665V14.5382C39.3481 14.5852 38.8348 14.6802 38.3336 14.8218V14.4998C38.3336 14.0764 37.9903 13.7332 37.5669 13.7332C37.1435 13.7332 36.8002 14.0764 36.8002 14.4998V15.4198C36.2539 15.6981 35.7397 16.0354 35.2669 16.4257V14.4998C35.2669 14.0764 34.9237 13.7332 34.5002 13.7332C34.0768 13.7332 33.7336 14.0764 33.7336 14.4998V18.0832C33.387 18.5759 33.0938 19.104 32.8588 19.6587C32.694 20.0497 32.4721 20.414 32.2002 20.7397V14.4998C32.2002 14.0764 31.857 13.7332 31.4336 13.7332C31.0102 13.7332 30.6669 14.0764 30.6669 14.4998V21.8736C30.2227 22.0631 29.7453 22.1627 29.2624 22.1665H17.1828ZM24.8494 10.6665L22.7741 8.59113C22.4733 8.30058 21.9951 8.30474 21.6994 8.60047C21.4036 8.8962 21.3995 9.37437 21.69 9.6752L22.6828 10.6665H8.62294L9.81358 5.29983H25.3769L25.9734 10.6665H24.8494ZM5.36691 10.6665V5.29983H8.24421L7.05358 10.6665H5.36691ZM3.06691 2.23316H23.0002C23.9747 2.23435 24.843 2.84826 25.1691 3.7665H5.36691C4.52007 3.7665 3.83358 4.45299 3.83358 5.29983V10.6665H2.30024V2.99983C2.30024 2.57641 2.64349 2.23316 3.06691 2.23316ZM2.33474 12.1998H9.20024V14.8318C8.45293 14.6139 7.67868 14.5021 6.90024 14.4998C5.56766 14.4988 4.25387 14.8141 3.06691 15.4198C2.64701 14.3942 2.39962 13.3062 2.33474 12.1998ZM3.06691 17.1947C4.20045 16.4343 5.53529 16.0298 6.90024 16.0332C9.93877 16.0475 12.6153 18.0352 13.5074 20.9398C13.6426 21.3825 13.8549 21.7977 14.1345 22.1665H12.2056C11.9175 20.1454 10.5054 18.4638 8.56449 17.8306C6.62361 17.1974 4.49154 17.7226 3.06691 19.1849V17.1947ZM6.90024 26.7665C4.78315 26.7665 3.06691 25.0503 3.06691 22.9332C3.06691 20.8161 4.78315 19.0998 6.90024 19.0998C9.01734 19.0998 10.7336 20.8161 10.7336 22.9332C10.731 25.0492 9.01628 26.764 6.90024 26.7665ZM36.8002 22.9332C36.8002 20.8161 38.5165 19.0998 40.6336 19.0998C42.7507 19.0998 44.4669 20.8161 44.4669 22.9332C44.4669 25.0503 42.7507 26.7665 40.6336 26.7665C38.5175 26.764 36.8028 25.0492 36.8002 22.9332Z" fill="#131313"/>
<path d="M40.6333 20.6334C39.3631 20.6334 38.3333 21.6632 38.3333 22.9334C38.3333 24.2037 39.3631 25.2334 40.6333 25.2334C41.9036 25.2334 42.9333 24.2037 42.9333 22.9334C42.9333 21.6632 41.9036 20.6334 40.6333 20.6334ZM40.6333 23.7001C40.2099 23.7001 39.8667 23.3568 39.8667 22.9334C39.8667 22.51 40.2099 22.1668 40.6333 22.1668C41.0568 22.1668 41.4 22.51 41.4 22.9334C41.4 23.3568 41.0568 23.7001 40.6333 23.7001Z" fill="#131313"/>
<path d="M6.90078 20.6334C5.63053 20.6334 4.60078 21.6632 4.60078 22.9334C4.60078 24.2037 5.63053 25.2334 6.90078 25.2334C8.17104 25.2334 9.20078 24.2037 9.20078 22.9334C9.20078 21.6632 8.17104 20.6334 6.90078 20.6334ZM6.90078 23.7001C6.47737 23.7001 6.13412 23.3568 6.13412 22.9334C6.13412 22.51 6.47737 22.1668 6.90078 22.1668C7.3242 22.1668 7.66745 22.51 7.66745 22.9334C7.66745 23.3568 7.3242 23.7001 6.90078 23.7001Z" fill="#131313"/>
</svg>
