<svg width="47" height="19" viewBox="0 0 47 19" fill="none" xmlns="http://www.w3.org/2000/svg">
<path d="M46.3791 7.1695C46.2572 6.97939 46.0586 6.85289 45.8355 6.82297L34.3355 5.2896C33.9207 5.23516 33.5305 5.52877 33.4738 5.94816C33.4171 6.36755 33.7129 6.75397 34.1323 6.80986L35.7669 7.02755V8.97492L31.9335 8.56397V4.74829L33.338 2.64145C33.4914 2.41145 33.509 2.11703 33.3848 1.87095C33.2599 1.62405 33.0122 1.46305 32.7362 1.45002L16.6362 0.683386C16.3778 0.68105 16.1271 0.792277 15.9761 1.00386L12.1427 6.37052C12.1274 6.39199 12.1243 6.41804 12.1113 6.44033L1.34795 5.28736C1.13026 5.26436 0.915529 5.33417 0.75381 5.47899C0.592809 5.62472 0.5 5.83172 0.5 6.04941C0.5 12.813 8.4105 18.3161 18.1334 18.3161H42.6669C43.0034 18.3161 43.3009 18.0968 43.3998 17.7748L46.4665 7.80811C46.5323 7.59276 46.5002 7.35889 46.3791 7.1695ZM37.3001 9.11606V7.23158L40.3668 7.64019V9.46717L37.2955 9.13826C37.2956 9.13071 37.3001 9.12379 37.3001 9.11606ZM24.2231 2.58026L31.3117 2.91763L30.5289 4.09063C30.4453 4.21632 30.4 4.36511 30.4 4.51614V8.4001L23.4969 7.66023L24.2231 2.58026ZM16.9811 2.23526L22.6843 2.50668L21.9744 7.47389C21.9735 7.48153 21.9767 7.48926 21.9759 7.49689L13.8445 6.62594L16.9811 2.23526ZM42.1002 16.7828H18.1334C11.3576 16.7828 5.55391 13.9745 3.18185 10.0147L42.8271 14.42L42.1002 16.7828ZM43.2863 12.9288L2.4374 8.39003C2.27487 7.90622 2.14451 7.41406 2.08476 6.90886L43.7648 11.3739L43.2863 12.9288ZM44.224 9.88126L41.9002 9.63213V7.84495L44.7346 8.22292L44.224 9.88126Z" fill="#131313"/>
</svg>
