<svg width="46" height="39" viewBox="0 0 46 39" fill="none" xmlns="http://www.w3.org/2000/svg">
<path d="M45.9882 26.8885C44.6993 18.1407 39.5952 10.3555 39.5443 10.2797C39.4543 10.1448 39.335 10.0319 39.1953 9.9495C39.0556 9.86709 38.8991 9.81728 38.7375 9.80378C36.8065 7.09552 34.3156 4.83417 31.4339 3.1731C28.5521 1.51203 25.3469 0.490068 22.0355 0.176528C19.0306 -0.103051 16.0009 0.284357 13.163 1.31108C10.3251 2.33781 7.7489 3.97852 5.61842 6.11604C0.757727 10.9108 -1.13625 18.1369 0.675603 24.9741C1.65376 28.6354 3.25356 32.1015 5.40521 35.2212C5.58733 35.4864 5.82683 35.7073 6.10595 35.8673C6.38507 36.0273 6.69664 36.1224 7.01754 36.1456C7.01754 36.1456 42.3028 38.8999 42.3116 38.9006C42.8051 38.9151 43.2902 38.7708 43.6954 38.4888C44.1006 38.2068 44.4044 37.8021 44.5622 37.3343C45.425 34.2701 45.7683 31.0831 45.5778 27.9054C45.7307 27.7879 45.8493 27.6317 45.9215 27.4529C45.9937 27.2741 46.0167 27.0792 45.9882 26.8885ZM19.4091 2.81358L19.8874 1.53768C19.9771 1.53645 21.322 1.55682 21.9099 1.60841C23.6801 1.76689 25.4231 2.14954 27.0969 2.74717L26.5863 4.31461C26.578 4.3493 26.559 4.38048 26.5319 4.40373L19.5584 3.04283C19.5327 3.0393 19.508 3.03028 19.4861 3.01638C19.4642 3.00249 19.4455 2.98404 19.4314 2.9623C19.4172 2.94056 19.4079 2.91603 19.404 2.89037C19.4002 2.86471 19.4019 2.83852 19.4091 2.81358ZM43.1787 36.944C43.1323 37.1049 43.0317 37.2449 42.894 37.3402C42.7563 37.4356 42.5899 37.4804 42.4229 37.4673L7.1288 34.7123C7.02228 34.7047 6.91879 34.6735 6.8258 34.621C6.73281 34.5685 6.65265 34.496 6.59112 34.4088C4.53217 31.4243 3.00123 28.1084 2.06507 24.6056C0.384994 18.2657 2.13351 11.573 6.62815 7.13942C9.7652 3.99489 13.9005 2.04255 18.322 1.61857C18.322 1.61857 18.0305 2.39926 18.0243 2.4226C17.9643 2.64138 17.9506 2.87028 17.9841 3.09465C18.0176 3.31903 18.0976 3.53394 18.2189 3.72566C18.3402 3.91737 18.5002 4.08166 18.6886 4.20803C18.877 4.3344 19.0897 4.42006 19.3131 4.45953C19.3131 4.45953 26.3765 5.83662 26.402 5.83877C26.7331 5.85815 27.0616 5.76932 27.3378 5.58568C27.6139 5.40203 27.8229 5.13354 27.9331 4.82072C28.0764 4.41499 28.403 3.37853 28.4378 3.27171C31.9053 4.78615 34.9277 7.16266 37.2173 10.1751L27.3065 13.1105C25.8554 13.5699 23.3399 13.6236 23.0354 13.6285L16.2804 13.0909C14.6062 12.9622 12.9489 13.5003 11.6696 14.588C11.1775 15.0401 10.7819 15.5869 10.5065 16.1956C10.231 16.8044 10.0815 17.4625 10.0667 18.1305C10.0384 19.4752 10.3683 20.8033 11.0226 21.9784C13.3128 26.2347 18.4818 28.61 26.3861 29.0381C28.3978 29.1473 30.326 29.2017 32.1809 29.2017C36.1936 29.2284 40.2016 28.9198 44.1629 28.2793C44.3046 31.2017 43.9722 34.1278 43.1787 36.944ZM30.0777 13.7891L32.7 13.0125C35.8911 17.3165 38.1605 22.2323 39.3667 27.4527C38.4553 27.5364 37.5229 27.6027 36.5695 27.6516C35.4688 22.6036 33.2505 17.8667 30.0777 13.7891ZM35.1121 27.7154C32.4073 27.8069 29.5347 27.7694 26.464 27.6027C19.0943 27.2034 14.325 25.0818 12.2885 21.2972C11.7574 20.3494 11.4864 19.278 11.5029 18.1916C11.5085 17.713 11.6121 17.2407 11.8074 16.8037C12.0026 16.3667 12.2852 15.9743 12.6379 15.6507C13.6108 14.7648 14.9143 14.5252 16.1872 14.5252L22.9865 15.0667C22.9865 15.0667 25.9955 15.0334 27.7275 14.4852L28.5765 14.2337C31.7596 18.1672 33.9958 22.7799 35.1121 27.7154ZM40.8057 27.3028C39.6115 21.9969 37.3564 16.9872 34.1761 12.5753L38.4928 11.2968C39.8744 13.4376 43.4404 20.045 44.5147 26.7636C43.3157 26.9787 42.0794 27.1585 40.8057 27.3028Z" fill="#131313"/>
</svg>
