<svg width="41" height="41" viewBox="0 0 41 41" fill="none" xmlns="http://www.w3.org/2000/svg">
<g clip-path="url(#clip0_1_2847)">
<path d="M7.16661 19.8334C3.48468 19.8334 0.5 22.8184 0.5 26.5C0.5 30.1819 3.48468 33.1666 7.16661 33.1666C10.8485 33.1666 13.8332 30.1819 13.8332 26.5C13.8293 22.82 10.8469 19.8376 7.16661 19.8334ZM7.16661 31.8333C4.221 31.8333 1.83332 29.4456 1.83332 26.5C1.83332 23.5547 4.221 21.1667 7.16661 21.1667C10.1122 21.1667 12.4999 23.5547 12.4999 26.5C12.4966 29.4443 10.1106 31.83 7.16661 31.8333Z" fill="#131313"/>
<path d="M7.16658 23.8333C5.69394 23.8333 4.49994 25.0273 4.49994 26.4999C4.49994 27.9729 5.69394 29.1665 7.16658 29.1665C8.63923 29.1665 9.83323 27.9729 9.83323 26.4999C9.83323 25.0273 8.63923 23.8333 7.16658 23.8333ZM7.16658 27.8332C6.43026 27.8332 5.83326 27.2365 5.83326 26.4999C5.83326 25.7636 6.43026 25.1666 7.16658 25.1666C7.90291 25.1666 8.49991 25.7636 8.49991 26.4999C8.49991 27.2365 7.90291 27.8332 7.16658 27.8332Z" fill="#131313"/>
<path d="M33.8327 19.8334C33.0514 19.835 32.2764 19.975 31.544 20.2468L30.9668 19.0469C31.8005 18.7257 32.6816 18.5456 33.5745 18.5134C33.6374 18.5134 33.6986 18.5043 33.762 18.5037C35.0853 18.4893 36.3913 18.8051 37.5621 19.4223C37.8873 19.5896 38.2867 19.4636 38.457 19.1397C38.6272 18.8158 38.5048 18.4154 38.1826 18.2423C36.8522 17.5421 35.3714 17.1759 33.8682 17.1755C33.8555 17.1755 33.8454 17.1684 33.8327 17.1684C33.8092 17.1684 33.7874 17.1684 33.7659 17.1684C33.6475 17.1684 33.5293 17.1811 33.4108 17.1863C32.3734 17.2309 31.3509 17.45 30.3861 17.8334L29.2953 15.5623C29.902 15.7446 30.5326 15.836 31.166 15.8334C31.5342 15.8334 31.8327 15.5353 31.8327 15.1668V9.83348C31.8327 9.46532 31.5342 9.16682 31.166 9.16682C29.6032 9.08642 28.0892 9.72476 27.056 10.9002L25.766 8.21175C25.6553 7.98096 25.4219 7.83415 25.1661 7.8335H21.1661C20.798 7.8335 20.4995 8.132 20.4995 8.50016C20.4995 8.86864 20.798 9.16682 21.1661 9.16682H24.7468L25.7068 11.1668H20.2648C18.4799 11.1691 16.8702 12.2397 16.1782 13.8849C16.0659 13.8527 15.9497 13.8354 15.8328 13.8334H5.16624C3.6936 13.8334 2.4996 15.0274 2.4996 16.5001C2.50285 17.199 3.04516 17.7768 3.7421 17.8243C2.90942 18.1495 2.12785 18.5938 1.42213 19.143C1.13209 19.3699 1.08066 19.7888 1.30755 20.0788C1.53443 20.3689 1.95338 20.4203 2.24374 20.1934C4.6542 18.3119 7.92664 17.9688 10.675 19.3103C13.423 20.6514 15.1665 23.4421 15.1662 26.5V27.3783C15.0867 27.8867 15.2208 28.4053 15.5369 28.8115C15.7954 29.0566 16.1434 29.1852 16.4995 29.1667H23.8328C24.3666 29.1787 24.8826 28.972 25.2602 28.5941C25.6378 28.2165 25.8448 27.7008 25.8327 27.1667V26.5C25.8314 25.1797 26.1592 23.8796 26.7862 22.7175C26.8301 22.6355 26.8806 22.5596 26.9275 22.4795C27.5153 21.4724 28.3148 20.6049 29.2709 19.9369C29.3047 19.9135 29.3373 19.8868 29.3695 19.8643C29.4473 19.8116 29.5306 19.7676 29.6101 19.7182C29.6615 19.6863 29.7139 19.6557 29.766 19.6241L30.3448 20.8295C27.5212 22.5772 26.4184 26.1393 27.7611 29.1768C29.1036 32.2138 32.4802 33.7962 35.6732 32.8844C38.8662 31.9726 40.8981 28.846 40.4345 25.5576C39.9706 22.2696 37.1533 19.8269 33.8327 19.8334ZM27.8327 12.5001C27.8327 11.5522 28.9987 10.7335 30.4994 10.5425V14.4581C29.6875 14.3836 28.9209 14.0519 28.3106 13.5115L27.836 12.5229C27.836 12.5151 27.8327 12.5076 27.8327 12.5001ZM20.2648 12.5001H26.0873L28.0873 16.5001H18.0675C17.5698 16.4998 17.1665 16.0965 17.1661 15.5991C17.1681 13.8885 18.5542 12.5021 20.2648 12.5001ZM5.16624 15.1668H15.8328V16.5001H3.83292C3.83292 15.7638 4.42992 15.1668 5.16624 15.1668ZM24.4994 27.1667C24.5098 27.3467 24.4428 27.5221 24.3155 27.6497C24.1882 27.777 24.0124 27.8438 23.8328 27.8333H16.5047C16.4936 27.7168 16.4962 27.5368 16.4975 27.3949L16.4995 26.5C16.5057 22.6788 14.175 19.2416 10.6223 17.8334H15.8328C16.1935 17.8331 16.5385 17.6863 16.7889 17.4262C17.1629 17.6908 17.6095 17.8331 18.0675 17.8334H28.9066L29.1866 18.4167C29.128 18.4509 29.0707 18.4877 29.0127 18.5229C28.8793 18.6023 28.7461 18.6768 28.6189 18.7621L28.6062 18.7722C28.406 18.9057 28.2113 19.0535 28.0209 19.2048C27.9603 19.183 27.8969 19.1703 27.8327 19.1667H19.1661C18.6274 19.1677 18.1115 19.3855 17.7352 19.7709C17.3589 20.1566 17.1538 20.6775 17.1661 21.2162V21.7842C17.1538 22.323 17.3589 22.8438 17.7352 23.2295C18.1115 23.6149 18.6274 23.8327 19.1661 23.8334H24.8926C24.7644 24.2702 24.6684 24.7158 24.6062 25.1667H20.4995C20.1313 25.1667 19.8328 25.4652 19.8328 25.8334C19.8328 26.2018 20.1313 26.5 20.4995 26.5H24.4994V27.1667ZM25.6114 22.0889C25.6 22.1094 25.586 22.129 25.5746 22.1501C25.5687 22.1615 25.5694 22.1742 25.5642 22.1862C25.5108 22.2888 25.4626 22.3956 25.4128 22.5H19.1661C18.9816 22.4974 18.8058 22.4196 18.6801 22.2846C18.5542 22.1495 18.4891 21.9685 18.4995 21.7842V21.2162C18.4891 21.032 18.5542 20.851 18.6801 20.7159C18.8058 20.5808 18.9816 20.5027 19.1661 20.5001H26.6882C26.3497 20.9076 26.0463 21.3428 25.7813 21.8015C25.7253 21.9001 25.6641 21.9903 25.6114 22.0889ZM33.8327 31.8333C31.4704 31.8369 29.3881 30.2851 28.7159 28.0205C28.0437 25.7559 28.9424 23.3194 30.9242 22.0336L32.1012 24.487C31.1273 25.3526 30.9466 26.8063 31.6787 27.8841C32.4111 28.9619 33.8291 29.3297 34.9928 28.7432C36.1562 28.1569 36.7047 26.7985 36.2741 25.5687C35.8434 24.3389 34.5674 23.6192 33.292 23.8868L32.1227 21.4509C34.126 20.7696 36.3428 21.337 37.7721 22.8975C39.2018 24.4577 39.5735 26.7155 38.72 28.6517C37.8662 30.5879 35.9489 31.8362 33.8327 31.8333ZM33.8327 25.1667C34.569 25.1667 35.166 25.7637 35.166 26.5C35.166 27.2367 34.569 27.8333 33.8327 27.8333C33.0964 27.8333 32.4994 27.2367 32.4994 26.5C32.5003 26.2106 32.597 25.9294 32.7741 25.7002C32.8874 25.7852 33.0244 25.8317 33.166 25.8334C33.3421 25.8337 33.5114 25.763 33.6354 25.638C33.7594 25.5127 33.8281 25.3431 33.8268 25.1667H33.8327Z" fill="#131313"/>
</g>
<defs>
<clipPath id="clip0_1_2847">
<rect width="40" height="40" fill="white" transform="translate(0.5 0.5)"/>
</clipPath>
</defs>
</svg>
