<svg width="46" height="25" viewBox="0 0 46 25" fill="none" xmlns="http://www.w3.org/2000/svg">
<path d="M45.3796 12.3219L44.4737 11.4159L42.6485 5.94024C42.9208 5.85372 43.1182 5.59902 43.1182 5.29813C43.1182 4.92599 42.8165 4.6243 42.4443 4.6243H35.9162V1.69736C35.9162 0.928658 35.2909 0.303345 34.5222 0.303345H1.39286C0.624154 0.303345 -0.00115967 0.928748 -0.00115967 1.69736V17.5417C-0.00115967 18.3104 0.624154 18.9357 1.39286 18.9357H2.15941V20.4221C2.15941 21.1908 2.78472 21.8161 3.55343 21.8161H5.10512C5.42101 23.4549 6.86525 24.6969 8.59484 24.6969C9.77916 24.6969 10.8293 24.1141 11.4756 23.2209C12.1219 24.1141 13.1721 24.6969 14.3564 24.6969C16.086 24.6969 17.5304 23.4549 17.8462 21.8161H34.6333C34.9492 23.4549 36.3934 24.6969 38.123 24.6969C40.0831 24.6969 41.6776 23.1022 41.6776 21.1423C41.6776 21.1268 41.6766 21.1116 41.6765 21.0963H44.6048C45.3735 21.0963 45.9988 20.471 45.9988 19.7023V13.8168C45.9989 13.2521 45.779 12.7212 45.3796 12.3219ZM5.10512 20.4685H3.55343C3.52782 20.4685 3.50707 20.4478 3.50707 20.4222V18.9358H5.81111C5.46252 19.3748 5.21518 19.8973 5.10512 20.4685ZM8.59484 23.3494C7.3779 23.3494 6.38791 22.3593 6.38791 21.1425C6.38791 19.9302 7.37053 18.9434 8.58109 18.9358H8.60876C9.81932 18.9433 10.8019 19.9301 10.8019 21.1425C10.8019 22.3593 9.81177 23.3494 8.59484 23.3494ZM14.3565 23.3494C13.1396 23.3494 12.1495 22.3593 12.1495 21.1425C12.1495 19.9302 13.1321 18.9434 14.3427 18.9358H14.3704C15.5809 18.9433 16.5635 19.9301 16.5635 21.1425C16.5635 22.3593 15.5735 23.3494 14.3565 23.3494ZM34.6334 20.4685H17.8462C17.7362 19.8973 17.4888 19.3747 17.1402 18.9357H30.2009C30.573 18.9357 30.8747 18.634 30.8747 18.2619C30.8747 17.8898 30.573 17.5881 30.2009 17.5881H1.39286C1.36725 17.5881 1.3465 17.5673 1.3465 17.5417V1.69736C1.3465 1.67176 1.36725 1.651 1.39286 1.651H34.5221C34.5477 1.651 34.5684 1.67176 34.5684 1.69736V17.5881H33.082C32.7098 17.5881 32.4081 17.8898 32.4081 18.262C32.4081 18.6341 32.7098 18.9358 33.082 18.9358H35.3394C34.9907 19.3748 34.7435 19.8973 34.6334 20.4685ZM43.1899 11.8262H38.8433C38.8177 11.8262 38.797 11.8054 38.797 11.7798V8.85262H42.1987L43.1899 11.8262ZM38.1231 23.3494C36.9062 23.3494 35.9162 22.3593 35.9162 21.1425C35.9162 19.9302 36.8988 18.9434 38.1094 18.9358H38.1232C38.1247 18.9358 38.1263 18.9356 38.1279 18.9355C39.3427 18.9381 40.3302 19.9271 40.3302 21.1424C40.33 22.3593 39.3401 23.3494 38.1231 23.3494ZM44.6513 19.7024C44.6513 19.7281 44.6305 19.7488 44.6049 19.7488H41.3928C40.8497 18.4796 39.5887 17.5879 38.1231 17.5879C38.1185 17.5879 38.114 17.5882 38.1093 17.5882H35.9162V6.01859V6.01823C35.9162 5.99262 35.937 5.97187 35.9626 5.97187H41.2385L41.7495 7.50496H38.1231C37.751 7.50496 37.4493 7.80666 37.4493 8.17879V11.7798C37.4493 12.5485 38.0746 13.1738 38.8433 13.1738H44.3258L44.4268 13.2748C44.5715 13.4197 44.6513 13.6121 44.6513 13.8169V15.4276H43.8847C43.5126 15.4276 43.2109 15.7293 43.2109 16.1014C43.2109 16.4735 43.5126 16.7752 43.8847 16.7752H44.6513V19.7024Z" fill="#131313"/>
</svg>
