<svg width="47" height="15" viewBox="0 0 47 15" fill="none" xmlns="http://www.w3.org/2000/svg">
<path d="M12.6972 10.4678C12.6972 12.4566 11.0849 14.0688 9.09614 14.0688C7.10736 14.0688 5.49512 12.4566 5.49512 10.4678C5.49512 8.47904 7.10736 6.86679 9.09614 6.86679C11.0849 6.86679 12.6972 8.47904 12.6972 10.4678Z" stroke="#131313" stroke-width="1.34766" stroke-miterlimit="10" stroke-linecap="round" stroke-linejoin="round"/>
<path d="M12.6972 11.9081H33.5829" stroke="#131313" stroke-width="1.34766" stroke-miterlimit="10" stroke-linecap="round" stroke-linejoin="round"/>
<path d="M9.60535 9.9587L8.58688 10.9772" stroke="#131313" stroke-width="1.34766" stroke-miterlimit="10" stroke-linecap="round" stroke-linejoin="round"/>
<path d="M40.7841 10.4681C40.7841 12.4568 39.1718 14.0691 37.1831 14.0691C35.1943 14.0691 33.582 12.4568 33.582 10.4681C33.582 8.47928 35.1943 6.86704 37.1831 6.86704C39.1718 6.86704 40.7841 8.47928 40.7841 10.4681Z" stroke="#131313" stroke-width="1.34766" stroke-miterlimit="10" stroke-linecap="round" stroke-linejoin="round"/>
<path d="M36.6747 9.95846L37.6932 10.9769" stroke="#131313" stroke-width="1.34766" stroke-miterlimit="10" stroke-linecap="round" stroke-linejoin="round"/>
<path d="M17.1068 4.30737L16.0939 4.16272C15.3844 4.06129 14.8572 3.45359 14.8572 2.73681V1.82544" stroke="#131313" stroke-width="1.34766" stroke-miterlimit="10" stroke-linecap="round" stroke-linejoin="round"/>
<path d="M40.7841 11.9084H44.3852C45.1806 11.9084 45.8255 11.2635 45.8255 10.4681V8.81099C45.8255 8.12306 45.5033 7.48005 44.9491 7.07234C43.4688 5.98325 40.3259 3.98621 37.1831 3.98621C34.6894 3.98621 32.1956 5.02246 30.8978 5.65964C30.2552 5.97517 29.5326 6.0828 28.8239 5.98155L19.8983 4.70639" stroke="#131313" stroke-width="1.34766" stroke-miterlimit="10" stroke-linecap="round" stroke-linejoin="round"/>
<path d="M5.49486 11.1877L2.65104 10.2398C1.76877 9.94565 1.17365 9.12008 1.17365 8.19011V3.81687L19.7312 1.13701C23.1467 0.643772 26.6316 1.03531 29.8525 2.27408L34.3028 3.98569" stroke="#131313" stroke-width="1.34766" stroke-miterlimit="10" stroke-linecap="round" stroke-linejoin="round"/>
<path d="M14.8572 6.86703L16.3849 8.39473C16.7902 8.80001 17.3397 9.02759 17.9127 9.02759H33.5824" stroke="#131313" stroke-width="1.34766" stroke-miterlimit="10" stroke-linecap="round" stroke-linejoin="round"/>
<path d="M43.6649 8.30688H45.4653" stroke="#131313" stroke-width="1.34766" stroke-miterlimit="10" stroke-linecap="round" stroke-linejoin="round"/>
</svg>
