<svg width="40" height="41" viewBox="0 0 40 41" fill="none" xmlns="http://www.w3.org/2000/svg">
<g clip-path="url(#clip0_1_2837)">
<path d="M39.8534 22.506C39.3098 20.1499 37.2077 18.3026 34.9017 17.7517L30.3473 16.6595L26.277 12.511C24.577 10.7795 22.2105 9.78638 19.7844 9.78638H4.57422C4.27352 9.78638 3.99945 9.95896 3.86953 10.2303C3.73969 10.5015 3.77695 10.8232 3.96555 11.0575L4.89508 12.2125C4.96008 12.2932 4.94969 12.4096 4.87141 12.4775L0.85875 15.9622C0.687891 16.1106 0.589766 16.3258 0.589766 16.5522V20.8257L0.0910937 21.7657C0.03125 21.8783 0 22.004 0 22.1317V25.2348C0 25.3892 0.0457031 25.54 0.131328 25.6684L1.3118 27.4379C1.45672 27.6551 1.70063 27.7856 1.96172 27.7856H3.3218C3.68914 29.7345 5.40313 31.2138 7.45719 31.2138C9.51125 31.2138 11.2252 29.7345 11.5925 27.7856H15.6113C16.0428 27.7856 16.3926 27.4358 16.3926 27.0043C16.3926 26.5729 16.0428 26.2231 15.6113 26.2231H11.5937C11.2236 24.26 9.44938 22.7954 7.45711 22.7954C5.46273 22.7954 3.69016 24.2622 3.32031 26.2231H2.37969L1.5625 24.9981V22.3261L2.06125 21.3861C2.12109 21.2733 2.15234 21.1475 2.15234 21.0199V16.9083L5.89602 13.6572C6.57477 13.0677 6.69516 12.079 6.19836 11.3488H19.7844C21.7939 11.3488 23.754 12.1713 25.1619 13.6054L29.3892 17.914C29.4919 18.0186 29.622 18.0922 29.7647 18.1265L34.538 19.2712C34.8338 19.3418 35.1195 19.4383 35.3952 19.5568L34.8336 19.9178C34.2848 20.2699 33.957 20.8702 33.957 21.5238C33.957 22.5633 34.8259 23.4325 35.8656 23.4325H38.4223C38.4313 23.5396 38.4375 23.6469 38.4375 23.7543V25.0272L37.7537 26.2231H34.5133C34.144 24.2615 32.3711 22.7954 30.377 22.7954C28.3827 22.7954 26.6116 24.2625 26.2408 26.2231H22.4857C22.0543 26.2231 21.7045 26.5729 21.7045 27.0043C21.7045 27.4358 22.0543 27.7856 22.4857 27.7856H26.2418C26.6091 29.7345 28.3231 31.2138 30.3771 31.2138C32.4311 31.2138 34.1452 29.7345 34.5125 27.7856H38.2072C38.4875 27.7856 38.7463 27.6354 38.8855 27.3922L39.8972 25.6226C39.9647 25.5045 40.0002 25.3708 40.0002 25.2348V23.7543C40 23.333 39.9502 22.911 39.8534 22.506ZM7.45719 29.6513C5.99781 29.6513 4.81055 28.464 4.81055 27.0046C4.81055 25.565 6.0168 24.3583 7.45711 24.3583C8.89727 24.3583 10.1038 25.5633 10.1038 27.0046C10.1038 28.464 8.91648 29.6513 7.45719 29.6513ZM30.377 29.6513C28.9182 29.6513 27.7314 28.465 27.7304 27.0065C27.7304 27.0058 27.7305 27.0051 27.7305 27.0043C27.7305 25.5453 28.9178 24.3583 30.3773 24.3583C31.8364 24.3583 33.0234 25.5453 33.0234 27.0043C33.0234 27.0054 33.0236 27.0064 33.0236 27.0075C33.022 28.4655 31.8355 29.6513 30.377 29.6513ZM35.6202 21.7673C35.4691 21.6167 35.4965 21.349 35.6779 21.2326L36.8429 20.4837C37.2855 20.8799 37.6655 21.3468 37.9482 21.87H35.8656C35.7414 21.87 35.6592 21.8063 35.6202 21.7673Z" fill="white"/>
<path d="M25.5447 19.075C26.4506 19.075 26.9512 17.9678 26.3528 17.2862L24.3189 14.9692C23.0223 13.4924 21.1515 12.6453 19.1861 12.6453H9.89435C9.46232 12.6453 9.0499 12.8069 8.73326 13.1004L5.95279 15.6764C5.63927 15.967 5.52693 16.4157 5.66662 16.8196C5.80623 17.2232 6.17154 17.5065 6.59732 17.5412C10.236 17.8381 22.3496 18.8257 25.4579 19.0717C25.4869 19.0739 25.5158 19.075 25.5447 19.075ZM9.79521 14.2465C9.82224 14.2215 9.8574 14.2077 9.89435 14.2077H16.1194V16.7491C12.9816 16.4939 9.82888 16.237 7.82326 16.0735L9.79521 14.2465ZM17.6819 16.876V14.2077H19.186C20.7017 14.2077 22.1446 14.861 23.1445 16L24.3901 17.4189C22.769 17.2888 20.2998 17.0887 17.6819 16.876Z" fill="white"/>
<path d="M16.9014 22.0237H18.6486C19.0801 22.0237 19.4299 21.6738 19.4299 21.2424C19.4299 20.811 19.0801 20.4612 18.6486 20.4612H16.9014C16.4699 20.4612 16.1201 20.811 16.1201 21.2424C16.1201 21.6738 16.47 22.0237 16.9014 22.0237Z" fill="white"/>
<path d="M6.40332 19.3752C5.97184 19.3752 5.62207 19.7251 5.62207 20.1565C5.62207 20.5879 5.97184 20.9377 6.40332 20.9377H8.15066C8.58215 20.9377 8.93191 20.5879 8.93191 20.1565C8.93191 19.7251 8.58215 19.3752 8.15066 19.3752H6.40332Z" fill="white"/>
<path d="M19.8476 26.7056C19.7195 26.3983 19.4012 26.2006 19.0686 26.2255C18.7423 26.2499 18.4616 26.4816 18.3737 26.7963C18.1872 27.4648 18.936 28.0261 19.5275 27.6743C19.8569 27.4783 19.9922 27.0587 19.8476 26.7056Z" fill="white"/>
</g>
<defs>
<clipPath id="clip0_1_2837">
<rect width="40" height="40" fill="white" transform="translate(0 0.5)"/>
</clipPath>
</defs>
</svg>
