<svg width="40" height="21" viewBox="0 0 40 21" fill="none" xmlns="http://www.w3.org/2000/svg">
<path d="M39.9692 3.60018C39.7004 2.25018 37.6504 1.35018 36.8567 1.11268H36.8504C36.8442 1.11268 36.8379 1.10643 36.8379 1.10643C34.6817 0.462676 31.2817 0.131426 27.3504 2.19393L25.8317 2.88143L18.6254 1.41268C18.4879 1.38768 18.3504 1.40643 18.2254 1.46893L14.6692 3.31893C14.4629 3.42518 14.3379 3.64393 14.3442 3.87518C14.3504 4.10643 14.4879 4.31268 14.7004 4.41268L18.6129 6.15643L10.1942 9.96893L4.28169 6.91268C4.10669 6.82518 3.90044 6.82518 3.73169 6.91268L0.331691 8.63768C0.150441 8.73143 0.0316906 8.90018 0.00669063 9.10018C-0.0183094 9.30018 0.0566906 9.50018 0.206691 9.63143L4.48169 13.3689C4.78169 13.6314 5.03794 13.9689 5.26919 14.4064C5.52544 14.8814 6.43794 16.2877 8.39419 16.2877C8.65669 16.2877 8.94419 16.2627 9.24419 16.2064C9.29419 16.2002 13.7317 15.7314 18.4879 14.6064L16.2192 19.5314C16.1129 19.7627 16.1629 20.0377 16.3442 20.2189C16.4629 20.3314 16.6129 20.3939 16.7692 20.3939C16.8567 20.3939 16.9442 20.3752 17.0317 20.3314L21.9317 17.9814C22.0442 17.9252 22.1379 17.8439 22.2004 17.7314L25.1629 12.4689C25.5504 12.2877 26.1254 12.0252 26.8504 11.7002C30.5442 10.0377 37.4192 6.93768 39.2754 5.23768C40.0004 4.64393 40.0567 4.01893 39.9692 3.60018ZM16.3442 3.81268L18.5942 2.64393L23.9504 3.73768L20.0942 5.48768L16.3442 3.81268ZM4.00044 8.12518L5.90669 9.11268L3.00669 10.4627L1.68169 9.30643L4.00044 8.12518ZM21.2379 16.9627L18.0254 18.5064L21.6379 10.6627L25.8629 8.75018L21.2379 16.9627ZM38.4879 4.31268C36.7504 5.90018 29.7317 9.06893 26.3567 10.5877C26.2942 10.6189 26.2379 10.6439 26.1754 10.6689L27.8317 7.73143C27.9629 7.50018 27.9254 7.21893 27.7504 7.02518C27.5754 6.83143 27.2942 6.77518 27.0504 6.88143L20.9317 9.65018C20.8004 9.71268 20.6942 9.81893 20.6317 9.95018L19.1379 13.1877C14.1379 14.4502 9.17544 14.9814 9.07544 14.9939C7.40044 15.3064 6.64419 14.4002 6.34419 13.8314C6.04419 13.2627 5.69419 12.8127 5.28169 12.4502L4.00669 11.3377L7.26919 9.81893L9.90044 11.1814C10.0629 11.2689 10.2629 11.2689 10.4317 11.1939L27.8879 3.28143C30.5942 1.86268 33.0004 1.67518 34.8504 1.91893L32.9067 2.89393C32.6067 3.04393 32.4879 3.40643 32.6379 3.70643C32.7442 3.91893 32.9567 4.04393 33.1817 4.04393C33.2754 4.04393 33.3629 4.02518 33.4504 3.98143L36.7129 2.35018C37.6254 2.67518 38.6879 3.36268 38.7879 3.85018C38.7942 3.88768 38.8192 4.03768 38.4879 4.31268Z" fill="#131313"/>
</svg>
