<svg width="36" height="29" viewBox="0 0 36 29" fill="none" xmlns="http://www.w3.org/2000/svg">
<path d="M28.094 21.9434C27.85 21.9434 27.6159 22.0403 27.4434 22.2128C27.2709 22.3854 27.174 22.6194 27.174 22.8634C27.174 23.1074 27.2709 23.3414 27.4434 23.5139C27.6159 23.6864 27.85 23.7834 28.094 23.7834C28.338 23.7834 28.572 23.6864 28.7445 23.5139C28.917 23.3414 29.014 23.1074 29.014 22.8634C29.014 22.6194 28.917 22.3854 28.7445 22.2128C28.572 22.0403 28.338 21.9434 28.094 21.9434Z" fill="#131313"/>
<path d="M28.094 20.11C27.7319 20.1091 27.3731 20.1797 27.0383 20.3177C26.7035 20.4556 26.3991 20.6583 26.1428 20.9141C25.8864 21.1698 25.683 21.4736 25.5442 21.8081C25.4054 22.1426 25.334 22.5012 25.334 22.8633C25.4707 26.53 30.704 26.51 30.8407 22.8633C30.8407 22.1342 30.5515 21.4349 30.0366 20.9188C29.5217 20.4026 28.8231 20.1118 28.094 20.11ZM28.094 24.6167C25.7607 24.5433 25.7607 21.1833 28.094 21.11C30.414 21.1833 30.414 24.5433 28.094 24.6167Z" fill="#131313"/>
<path d="M9.87398 21.9434C9.62998 21.9434 9.39597 22.0403 9.22344 22.2128C9.05091 22.3854 8.95398 22.6194 8.95398 22.8634C8.95398 23.1074 9.05091 23.3414 9.22344 23.5139C9.39597 23.6864 9.62998 23.7834 9.87398 23.7834C10.118 23.7834 10.352 23.6864 10.5245 23.5139C10.6971 23.3414 10.794 23.1074 10.794 22.8634C10.794 22.6194 10.6971 22.3854 10.5245 22.2128C10.352 22.0403 10.118 21.9434 9.87398 21.9434Z" fill="#131313"/>
<path d="M9.87443 20.1099C9.51285 20.1099 9.15482 20.1811 8.82077 20.3194C8.48672 20.4578 8.1832 20.6606 7.92753 20.9163C7.67186 21.172 7.46905 21.4755 7.33068 21.8095C7.19231 22.1436 7.12109 22.5016 7.12109 22.8632C7.25776 26.5299 12.4911 26.5099 12.6278 22.8632C12.6278 22.5016 12.5565 22.1436 12.4182 21.8095C12.2798 21.4755 12.077 21.172 11.8213 20.9163C11.5657 20.6606 11.2621 20.4578 10.9281 20.3194C10.594 20.1811 10.236 20.1099 9.87443 20.1099ZM9.87443 24.6165C7.54109 24.5432 7.55776 21.1832 9.87443 21.1099C12.1944 21.1832 12.1911 24.5432 9.87443 24.6165Z" fill="#131313"/>
<path d="M22.3606 12.4167L18.0473 7.54674C18 7.4926 17.9416 7.44936 17.876 7.42001C17.8104 7.39066 17.7392 7.3759 17.6673 7.37674H15.4773C15.1679 7.37674 14.8711 7.49966 14.6523 7.71845C14.4336 7.93724 14.3106 8.23399 14.3106 8.54341V12.1901C14.3115 12.7644 14.5401 13.315 14.9462 13.7212C15.3524 14.1273 15.9029 14.3559 16.4773 14.3567H21.4773C21.7016 14.3558 21.921 14.2906 22.1094 14.1688C22.2978 14.047 22.4473 13.8738 22.5403 13.6696C22.6332 13.4655 22.6657 13.2389 22.6339 13.0169C22.602 12.7948 22.5072 12.5866 22.3606 12.4167ZM21.6406 13.2601C21.6279 13.2898 21.6064 13.315 21.579 13.3322C21.5516 13.3495 21.5196 13.358 21.4873 13.3567H16.4873C16.1779 13.3567 15.8811 13.2338 15.6623 13.015C15.4436 12.7962 15.3206 12.4995 15.3206 12.1901V8.54341C15.3215 8.49947 15.3393 8.45758 15.3704 8.4265C15.4015 8.39543 15.4434 8.3776 15.4873 8.37674H17.4573L21.6106 13.0801C21.6326 13.1039 21.6471 13.1336 21.6525 13.1656C21.6578 13.1976 21.6537 13.2304 21.6406 13.2601Z" fill="#131313"/>
<path d="M21.334 1.96002C21.4036 1.95966 21.4723 1.94497 21.536 1.91687C21.5996 1.88877 21.6568 1.84786 21.704 1.79669L22.2673 1.18335C22.3388 1.08355 22.3711 0.960925 22.3581 0.83884C22.345 0.716755 22.2874 0.603749 22.1964 0.521361C22.1054 0.438974 21.9872 0.392964 21.8644 0.392102C21.7416 0.39124 21.6228 0.435585 21.5306 0.516686L20.9673 1.13002C20.9057 1.20212 20.8657 1.29015 20.852 1.38398C20.8383 1.4778 20.8513 1.5736 20.8896 1.66034C20.9279 1.74707 20.99 1.82122 21.0686 1.87424C21.1472 1.92726 21.2392 1.957 21.334 1.96002Z" fill="#131313"/>
<path d="M21.1173 4.34335C21.0729 4.39171 21.0384 4.44836 21.0158 4.51005C20.9933 4.57174 20.9831 4.63727 20.9859 4.7029C20.9887 4.76852 21.0044 4.83296 21.0321 4.89252C21.0598 4.95208 21.0989 5.0056 21.1473 5.05002L21.814 5.66335C21.8605 5.71624 21.9177 5.75871 21.9818 5.78796C22.0459 5.81721 22.1154 5.83258 22.1859 5.83308C22.2563 5.83357 22.3261 5.81917 22.3906 5.79083C22.4551 5.76248 22.5128 5.72082 22.5601 5.66859C22.6074 5.61635 22.6431 5.55472 22.6649 5.48773C22.6866 5.42073 22.694 5.34989 22.6865 5.27984C22.679 5.20979 22.6568 5.14212 22.6213 5.08126C22.5858 5.0204 22.5379 4.96772 22.4806 4.92668L21.814 4.31335C21.7168 4.22664 21.5897 4.18126 21.4595 4.18686C21.3294 4.19247 21.2067 4.24861 21.1173 4.34335Z" fill="#131313"/>
<path d="M21.7073 3.08334C21.7133 3.21218 21.7685 3.3338 21.8615 3.42312C21.9546 3.51243 22.0784 3.56263 22.2073 3.56334H22.2273L22.9873 3.53001C23.053 3.52716 23.1174 3.51141 23.177 3.48366C23.2366 3.4559 23.2901 3.41668 23.3345 3.36824C23.3789 3.3198 23.4134 3.26309 23.4359 3.20133C23.4584 3.13958 23.4685 3.074 23.4657 3.00834C23.4628 2.94268 23.4471 2.87823 23.4193 2.81865C23.3915 2.75908 23.3523 2.70555 23.3039 2.66114C23.2554 2.61672 23.1987 2.58228 23.137 2.55978C23.0752 2.53728 23.0097 2.52716 22.944 2.53001L22.1873 2.56334C22.1216 2.56592 22.0571 2.58142 21.9974 2.60895C21.9378 2.63649 21.8841 2.67552 21.8395 2.72382C21.7949 2.77212 21.7603 2.82873 21.7376 2.89042C21.7149 2.95211 21.7046 3.01767 21.7073 3.08334Z" fill="#131313"/>
<path d="M35.3607 17.8066V15.19C35.3598 14.704 35.1663 14.2382 34.8227 13.8946C34.4791 13.551 34.0133 13.3575 33.5273 13.3566H26.2273L19.8007 6.23998C19.5 5.91053 19.1448 5.63539 18.7507 5.42665L18.974 4.90998C18.974 4.90998 19.684 5.01331 19.704 5.02331C19.8351 5.04146 19.9681 5.0072 20.0742 4.92796C20.1803 4.84873 20.2509 4.73089 20.2707 4.59998L20.684 1.80331C20.7022 1.67266 20.6684 1.54008 20.5898 1.43411C20.5113 1.32813 20.3943 1.25722 20.264 1.23664L19.5973 1.13665C17.7307 0.839979 16.6173 3.27665 18.0773 4.46998L17.824 5.06331C17.5885 5.01033 17.3486 4.97909 17.1073 4.96998C17.2002 4.72626 17.2311 4.46331 17.1973 4.20469C17.1636 3.94608 17.0662 3.69987 16.9139 3.48814C16.7617 3.2764 16.5592 3.10575 16.3248 2.99147C16.0904 2.87718 15.8312 2.82284 15.5707 2.83331C15.264 2.10927 14.7507 1.49167 14.095 1.0577C13.4393 0.623734 12.6703 0.392642 11.884 0.393312H6.44398C5.95745 0.394195 5.49114 0.58809 5.14742 0.932436C4.8037 1.27678 4.61065 1.74344 4.61065 2.22998V3.33665C4.40905 3.55193 4.2726 3.81995 4.21714 4.10964C4.16168 4.39932 4.18948 4.69879 4.29732 4.97331C4.08731 4.95244 3.87525 4.97562 3.67471 5.04138C3.47417 5.10714 3.28956 5.21403 3.13269 5.35521C2.97582 5.49639 2.85015 5.66876 2.7637 5.86129C2.67725 6.05382 2.63194 6.26227 2.63065 6.47331V10.3466H0.833984C0.703654 10.3466 0.578457 10.3974 0.485063 10.4883C0.391669 10.5793 0.33746 10.703 0.333984 10.8333V19.7C0.333984 19.8326 0.386663 19.9598 0.480431 20.0535C0.574199 20.1473 0.701376 20.2 0.833984 20.2H1.97065L1.67398 20.5333C1.54485 20.6824 1.44634 20.8554 1.38408 21.0425C1.32181 21.2296 1.29701 21.4272 1.3111 21.6239C1.32518 21.8206 1.37787 22.0126 1.46616 22.1889C1.55444 22.3653 1.6766 22.5225 1.82565 22.6516C1.9747 22.7808 2.14773 22.8793 2.33485 22.9416C2.52197 23.0038 2.71952 23.0286 2.91623 23.0145C3.11293 23.0005 3.30494 22.9478 3.48128 22.8595C3.65763 22.7712 3.81485 22.649 3.94398 22.5L4.35398 22.0233V23.4433L4.20398 23.6133C4.15165 23.6744 4.11471 23.7471 4.09628 23.8254C4.07784 23.9037 4.07844 23.9853 4.09803 24.0634C4.11762 24.1414 4.15562 24.2136 4.20885 24.2739C4.26209 24.3342 4.329 24.3809 4.40398 24.41L4.42065 24.45L5.38398 26.1166L5.34065 26.34C5.32424 26.4183 5.32724 26.4994 5.3494 26.5762C5.37155 26.6531 5.41219 26.7234 5.46775 26.7809C5.52332 26.8385 5.59213 26.8815 5.66817 26.9063C5.74421 26.9312 5.82517 26.937 5.90398 26.9233L5.95065 26.96L7.61732 27.9233L7.69065 28.1433C7.71733 28.2193 7.76195 28.2877 7.82073 28.3427C7.87952 28.3977 7.95072 28.4377 8.02828 28.4593C8.10584 28.4809 8.18747 28.4835 8.26623 28.4668C8.34499 28.45 8.41855 28.4146 8.48065 28.3633H8.52398H10.4507L10.6273 28.5133C10.6881 28.5657 10.7606 28.6027 10.8387 28.6211C10.9168 28.6396 10.9981 28.639 11.0759 28.6194C11.1537 28.5998 11.2257 28.5617 11.2857 28.5084C11.3457 28.4552 11.392 28.3882 11.4207 28.3133C11.4351 28.3147 11.4496 28.3147 11.464 28.3133L13.1307 27.35L13.354 27.3933C13.4326 27.4096 13.5139 27.4068 13.5912 27.385C13.6684 27.3633 13.7393 27.3233 13.7978 27.2683C13.8563 27.2134 13.9008 27.1452 13.9274 27.0695C13.954 26.9938 13.962 26.9128 13.9507 26.8333L13.9807 26.7966L14.944 25.13L15.1607 25.0566C15.2364 25.0297 15.3046 24.985 15.3595 24.9264C15.4144 24.8677 15.4545 24.7967 15.4764 24.7193C15.4982 24.642 15.5013 24.5605 15.4852 24.4818C15.4691 24.403 15.4344 24.3292 15.384 24.2666C15.3858 24.2511 15.3858 24.2355 15.384 24.22V22.4333C15.4294 22.4981 15.4898 22.551 15.56 22.5876C15.6302 22.6241 15.7082 22.6432 15.7873 22.6433H22.1707C22.2498 22.6432 22.3278 22.6241 22.398 22.5876C22.4682 22.551 22.5285 22.4981 22.574 22.4333V23.4333L22.424 23.6033C22.3716 23.6641 22.3346 23.7366 22.3162 23.8147C22.2977 23.8928 22.2983 23.9741 22.3179 24.0519C22.3375 24.1297 22.3756 24.2017 22.4289 24.2617C22.4821 24.3217 22.5491 24.368 22.624 24.3966V24.44L23.5873 26.1066L23.544 26.33C23.5278 26.4084 23.5309 26.4896 23.5531 26.5665C23.5752 26.6434 23.6158 26.7138 23.6713 26.7716C23.7267 26.8293 23.7954 26.8727 23.8714 26.898C23.9473 26.9233 24.0283 26.9297 24.1073 26.9166L24.154 26.95L25.8207 27.9133L25.894 28.1333C25.9207 28.2093 25.9653 28.2777 26.0241 28.3327C26.0828 28.3877 26.154 28.4277 26.2316 28.4493C26.3092 28.4709 26.3908 28.4735 26.4696 28.4568C26.5483 28.4401 26.6219 28.4046 26.684 28.3533H26.7273H28.6673L28.8407 28.5033C28.9014 28.5557 28.9739 28.5927 29.052 28.6111C29.1301 28.6296 29.2115 28.629 29.2893 28.6094C29.3671 28.5898 29.439 28.5517 29.499 28.4984C29.559 28.4452 29.6053 28.3782 29.634 28.3033H29.6773L31.344 27.34L31.5673 27.3833C31.6454 27.4005 31.7265 27.3986 31.8038 27.3779C31.881 27.3572 31.9522 27.3183 32.0113 27.2644C32.0704 27.2106 32.1157 27.1433 32.1435 27.0683C32.1712 26.9933 32.1805 26.9127 32.1707 26.8333L32.2007 26.7966L33.164 25.13L33.3807 25.0566C33.4564 25.0297 33.5246 24.985 33.5795 24.9264C33.6344 24.8677 33.6745 24.7967 33.6964 24.7193C33.7182 24.642 33.7213 24.5605 33.7052 24.4818C33.6891 24.403 33.6544 24.3292 33.604 24.2666C33.6058 24.2511 33.6058 24.2355 33.604 24.22V22.28L33.754 22.1066C33.8064 22.0461 33.8436 21.9738 33.8623 21.8959C33.8809 21.818 33.8806 21.7367 33.8614 21.659C33.8421 21.5812 33.8044 21.5092 33.7515 21.4491C33.6986 21.3889 33.632 21.3424 33.5573 21.3133L33.5373 21.27L32.5707 19.6033C32.5983 19.494 32.6161 19.3824 32.624 19.27L33.0773 19.7433C34.3973 21.0666 36.4673 19.3133 35.3607 17.8066ZM18.404 2.89665C18.4284 2.76473 18.4806 2.63951 18.5571 2.5293C18.6336 2.41908 18.7327 2.32639 18.8478 2.25737C18.9628 2.18834 19.0912 2.14455 19.2244 2.12891C19.3577 2.11327 19.4928 2.12613 19.6207 2.16665L19.354 3.97331C19.2176 3.97509 19.0825 3.94739 18.9579 3.89212C18.8333 3.83684 18.722 3.7553 18.6318 3.65306C18.5416 3.55082 18.4746 3.43031 18.4352 3.29975C18.3959 3.1692 18.3853 3.0317 18.404 2.89665ZM5.61065 2.22998C5.61021 2.12026 5.63144 2.01154 5.67313 1.91005C5.71481 1.80856 5.77612 1.7163 5.85355 1.63857C5.93097 1.56083 6.02299 1.49915 6.12431 1.45706C6.22563 1.41498 6.33427 1.39331 6.44398 1.39331H11.884C12.3996 1.39426 12.9064 1.52707 13.3562 1.77911C13.8061 2.03116 14.184 2.39405 14.454 2.83331H5.75398C5.70626 2.83023 5.65838 2.83023 5.61065 2.83331V2.22998ZM5.75398 3.83331H15.6407C15.7918 3.83331 15.9368 3.89337 16.0437 4.00026C16.1506 4.10716 16.2107 4.25214 16.2107 4.40331C16.2107 4.55449 16.1506 4.69947 16.0437 4.80636C15.9368 4.91326 15.7918 4.97331 15.6407 4.97331H5.76732C5.69246 4.97419 5.61817 4.96031 5.54868 4.93247C5.47919 4.90464 5.41586 4.86339 5.36231 4.81108C5.25417 4.70543 5.19242 4.56115 5.19065 4.40998C5.18888 4.25881 5.24724 4.11312 5.35289 4.00498C5.45853 3.89683 5.60281 3.83508 5.75398 3.83331ZM3.64732 8.37665H12.144C12.1882 8.37665 12.2306 8.39421 12.2618 8.42546C12.2931 8.45672 12.3107 8.49911 12.3107 8.54331V11.5233C12.3098 12.0093 12.1163 12.4751 11.7727 12.8187C11.4291 13.1623 10.9633 13.3558 10.4773 13.3566H3.64732V8.37665ZM3.64732 14.3566H10.4773C11.2285 14.3558 11.9487 14.057 12.4798 13.5258C13.011 12.9946 13.3098 12.2745 13.3107 11.5233V8.54331C13.3107 8.23389 13.1877 7.93715 12.9689 7.71835C12.7501 7.49956 12.4534 7.37665 12.144 7.37665H3.64732V6.47665C3.64732 6.34404 3.7 6.21686 3.79376 6.12309C3.88753 6.02932 4.01471 5.97665 4.14732 5.97665H16.9573C17.3536 5.97685 17.7455 6.06 18.1077 6.22074C18.47 6.38148 18.7946 6.61626 19.0607 6.90998L25.634 14.1933C25.681 14.2446 25.7382 14.2857 25.8019 14.3138C25.8655 14.3419 25.9344 14.3565 26.004 14.3566H33.5273C33.7481 14.3575 33.9595 14.4456 34.1156 14.6017C34.2717 14.7578 34.3598 14.9692 34.3607 15.19V16.7366C34.1573 16.5566 33.854 16.07 33.5407 16.1066H23.0607C22.9728 16.1062 22.8863 16.1292 22.8102 16.1731C22.7341 16.217 22.671 16.2804 22.6273 16.3566L20.7273 19.6433H17.2373L15.334 16.3566C15.2903 16.2804 15.2272 16.217 15.1511 16.1731C15.075 16.1292 14.9885 16.1062 14.9007 16.1066H5.73732C5.66575 16.1067 5.59504 16.1222 5.53003 16.1521C5.46502 16.182 5.40724 16.2257 5.36065 16.28L3.64732 18.26V14.3566ZM1.33398 19.2V18.5866L2.00065 18.0033C2.10099 17.9149 2.1621 17.7903 2.17054 17.6568C2.17898 17.5233 2.13406 17.392 2.04565 17.2916C1.95725 17.1913 1.8326 17.1302 1.69914 17.1218C1.56567 17.1133 1.43432 17.1582 1.33398 17.2466V16.1133L2.00065 15.53C2.10099 15.4416 2.1621 15.3169 2.17054 15.1835C2.17898 15.05 2.13406 14.9187 2.04565 14.8183C1.95725 14.718 1.8326 14.6569 1.69914 14.6484C1.56567 14.64 1.43432 14.6849 1.33398 14.7733V13.6433L2.00065 13.06C2.10099 12.9716 2.1621 12.8469 2.17054 12.7135C2.17898 12.58 2.13406 12.4487 2.04565 12.3483C1.95725 12.248 1.8326 12.1869 1.69914 12.1784C1.56567 12.17 1.43432 12.2149 1.33398 12.3033V11.3466H2.64732V19.2H1.33398ZM14.3907 21.9033L13.7473 22.64C13.6698 22.7306 13.6272 22.846 13.6273 22.9653C13.6274 23.0846 13.6701 23.1999 13.7478 23.2905C13.8255 23.381 13.9329 23.4408 14.0508 23.4591C14.1687 23.4773 14.2892 23.4528 14.3907 23.39V24.0566L14.264 24.2733L13.334 24.6066C13.2223 24.6471 13.1286 24.7259 13.0698 24.8291C13.0109 24.9322 12.9907 25.053 13.0128 25.1697C13.0348 25.2864 13.0977 25.3914 13.1902 25.466C13.2826 25.5406 13.3986 25.5798 13.5173 25.5766L13.184 26.17L12.964 26.2966L12.0007 26.11C11.8836 26.0876 11.7624 26.1078 11.6589 26.167C11.5554 26.2261 11.4764 26.3202 11.4362 26.4324C11.396 26.5446 11.3972 26.6675 11.4396 26.7789C11.4819 26.8903 11.5627 26.9829 11.6673 27.04L11.0773 27.3733H10.824L10.0873 26.7333C9.99717 26.6507 9.87989 26.6041 9.75765 26.6021C9.63542 26.6001 9.5167 26.643 9.42394 26.7226C9.33118 26.8023 9.2708 26.9131 9.25423 27.0342C9.23765 27.1554 9.26603 27.2784 9.33398 27.38H8.66732L8.45065 27.2533L8.13398 26.33C8.09358 26.2183 8.01473 26.1246 7.91157 26.0658C7.8084 26.0069 7.68766 25.9867 7.57095 26.0088C7.45425 26.0308 7.34921 26.0937 7.27464 26.1862C7.20007 26.2786 7.16084 26.3946 7.16398 26.5133L6.57065 26.18L6.44398 25.9633L6.63398 25.0033C6.65634 24.8862 6.63613 24.765 6.57701 24.6615C6.5179 24.5581 6.42376 24.4791 6.31156 24.4389C6.19936 24.3987 6.07649 24.3998 5.96509 24.4422C5.85369 24.4846 5.76109 24.5654 5.70398 24.67L5.37065 24.0766V23.8333L6.00065 23.0833C6.07569 22.9923 6.11615 22.8777 6.11488 22.7598C6.11361 22.6419 6.07069 22.5282 5.9937 22.4388C5.91672 22.3495 5.81062 22.2902 5.69417 22.2715C5.57772 22.2528 5.4584 22.2759 5.35732 22.3366V21.6533L5.48398 21.4366L6.40732 21.1033C6.51868 21.063 6.6121 20.9844 6.67094 20.8816C6.72977 20.7788 6.75021 20.6584 6.7286 20.542C6.70699 20.4255 6.64473 20.3205 6.55293 20.2457C6.46113 20.1708 6.34574 20.131 6.22732 20.1333L6.56065 19.5433L6.77732 19.4166L7.73732 19.6066H7.83398C7.89977 19.6071 7.96499 19.5945 8.02585 19.5695C8.08671 19.5445 8.14201 19.5077 8.18853 19.4612C8.23504 19.4147 8.27186 19.3594 8.29683 19.2985C8.3218 19.2376 8.33443 19.1724 8.33398 19.1066H11.524L11.624 19.3933C11.6672 19.5182 11.758 19.6209 11.8767 19.679C11.9954 19.737 12.1322 19.7458 12.2573 19.7033C12.3588 19.6692 12.4463 19.6029 12.5065 19.5144C12.5666 19.4259 12.5962 19.3202 12.5907 19.2133L13.184 19.5466L13.3073 19.7633L13.1207 20.7233C13.0983 20.8404 13.1185 20.9616 13.1776 21.0651C13.2367 21.1686 13.3309 21.2475 13.4431 21.2878C13.5553 21.328 13.6781 21.3268 13.7895 21.2844C13.9009 21.242 13.9935 21.1613 14.0507 21.0566L14.384 21.65L14.3907 21.9033ZM32.6107 21.6533V21.9033L31.9673 22.64C31.8898 22.7306 31.8472 22.846 31.8473 22.9653C31.8474 23.0846 31.8901 23.1999 31.9678 23.2905C32.0455 23.381 32.153 23.4408 32.2708 23.4591C32.3887 23.4773 32.5092 23.4528 32.6107 23.39V24.0566L32.484 24.2733L31.5607 24.59C31.449 24.6304 31.3553 24.7092 31.2965 24.8124C31.2376 24.9156 31.2174 25.0363 31.2395 25.153C31.2615 25.2697 31.3244 25.3748 31.4168 25.4493C31.5093 25.5239 31.6253 25.5631 31.744 25.56L31.4107 26.1533L31.1907 26.28L30.234 26.0933C30.1169 26.071 29.9957 26.0912 29.8922 26.1503C29.7887 26.2094 29.7098 26.3035 29.6695 26.4157C29.6293 26.5279 29.6305 26.6508 29.6729 26.7622C29.7153 26.8736 29.796 26.9662 29.9007 27.0233L29.3107 27.3566H29.0573L28.3207 26.7166C28.23 26.6409 28.1155 26.5996 27.9974 26.6002C27.8793 26.6008 27.7652 26.6432 27.6753 26.7198C27.5854 26.7965 27.5256 26.9025 27.5065 27.0191C27.4873 27.1357 27.5101 27.2552 27.5707 27.3566H26.904L26.6673 27.2533L26.334 26.33C26.2936 26.2183 26.2147 26.1246 26.1116 26.0658C26.0084 26.0069 25.8877 25.9867 25.771 26.0088C25.6542 26.0308 25.5492 26.0937 25.4746 26.1862C25.4001 26.2786 25.3608 26.3946 25.364 26.5133L24.7707 26.18L24.6673 25.9533L24.8573 24.9933C24.8797 24.8762 24.8595 24.755 24.8004 24.6515C24.7412 24.5481 24.6471 24.4691 24.5349 24.4289C24.4227 24.3887 24.2998 24.3898 24.1884 24.4322C24.077 24.4746 23.9844 24.5554 23.9273 24.66L23.594 24.0666V23.8333L24.2373 23.0933C24.3124 23.0023 24.3528 22.8877 24.3516 22.7698C24.3503 22.6519 24.3074 22.5382 24.2304 22.4488C24.1534 22.3595 24.0473 22.3002 23.9308 22.2815C23.8144 22.2628 23.6951 22.2859 23.594 22.3466V21.6533L23.7207 21.4366L24.644 21.1033C24.7553 21.063 24.8488 20.9844 24.9076 20.8816C24.9664 20.7788 24.9869 20.6584 24.9653 20.542C24.9437 20.4255 24.8814 20.3205 24.7896 20.2457C24.6978 20.1708 24.5824 20.131 24.464 20.1333L24.7973 19.5433L25.014 19.4166C25.0673 19.4166 26.0473 19.63 26.0707 19.6166C26.138 19.6168 26.2047 19.6031 26.2666 19.5764C26.3285 19.5498 26.3843 19.5107 26.4305 19.4617C26.4768 19.4127 26.5125 19.3547 26.5354 19.2913C26.5584 19.228 26.5681 19.1606 26.564 19.0933H29.754L29.854 19.38C29.8972 19.5048 29.988 19.6075 30.1067 19.6656C30.2254 19.7237 30.3622 19.7325 30.4873 19.69C30.5888 19.6559 30.6763 19.5896 30.7365 19.5011C30.7966 19.4126 30.8262 19.3068 30.8207 19.2L31.414 19.5333L31.5373 19.75L31.334 20.7333C31.3116 20.8504 31.3318 20.9716 31.391 21.0751C31.4501 21.1786 31.5442 21.2575 31.6564 21.2978C31.7686 21.338 31.8915 21.3368 32.0029 21.2944C32.1143 21.252 32.2069 21.1713 32.264 21.0666L32.6107 21.6533ZM34.514 19.0666C34.4176 19.1576 34.2898 19.2078 34.1573 19.2066C34.0302 19.1991 33.9109 19.143 33.824 19.05L33.064 18.26C33.0177 18.2111 32.9619 18.1722 32.9 18.1458C32.838 18.1194 32.7713 18.1061 32.704 18.1066H24.214C24.1262 18.1066 24.0399 18.1297 23.9638 18.1736C23.8877 18.2174 23.8246 18.2806 23.7807 18.3566L21.884 21.6433H16.0807L14.184 18.3566C14.1401 18.2806 14.0769 18.2174 14.0008 18.1736C13.9248 18.1297 13.8385 18.1066 13.7507 18.1066H6.66732C6.59526 18.1067 6.52405 18.1221 6.45849 18.152C6.39293 18.1819 6.33456 18.2256 6.28732 18.28L3.18732 21.8533C3.09891 21.9537 2.97427 22.0148 2.8408 22.0232C2.70734 22.0316 2.57599 21.9867 2.47565 21.8983C2.37531 21.8099 2.3142 21.6853 2.30576 21.5518C2.29732 21.4183 2.34225 21.287 2.43065 21.1866L5.96732 17.1066H14.634L16.5307 20.3933C16.5746 20.4694 16.6377 20.5325 16.7138 20.5764C16.7899 20.6203 16.8762 20.6434 16.964 20.6433H21.0173C21.1051 20.6434 21.1914 20.6203 21.2675 20.5764C21.3436 20.5325 21.4067 20.4694 21.4507 20.3933L23.334 17.1066H33.334L34.534 18.36C34.6242 18.4568 34.6727 18.5852 34.6689 18.7174C34.6652 18.8497 34.6095 18.9751 34.514 19.0666Z" fill="#131313"/>
<path d="M17.8607 15.3867H17.0207C16.8881 15.3867 16.7609 15.4394 16.6671 15.5332C16.5733 15.6269 16.5207 15.7541 16.5207 15.8867C16.5207 16.0193 16.5733 16.1465 16.6671 16.2403C16.7609 16.334 16.8881 16.3867 17.0207 16.3867H17.8607C17.9933 16.3867 18.1204 16.334 18.2142 16.2403C18.308 16.1465 18.3607 16.0193 18.3607 15.8867C18.3607 15.7541 18.308 15.6269 18.2142 15.5332C18.1204 15.4394 17.9933 15.3867 17.8607 15.3867Z" fill="#131313"/>
</svg>
