<svg width="40" height="25" viewBox="0 0 40 25" fill="none" xmlns="http://www.w3.org/2000/svg">
<path d="M3.45097 19.7332C2.77917 19.6882 2.42433 19.4708 1.98894 19.2029C1.65363 18.9966 1.27363 18.7627 0.741681 18.6217C0.428635 18.5387 0.108089 18.7251 0.0251209 19.0378C-0.0578475 19.3506 0.128558 19.6714 0.441291 19.7544C0.806446 19.8512 1.0698 20.0132 1.37473 20.201C1.91793 20.5353 2.53363 20.9141 3.72268 20.9141C4.9062 20.9141 5.5219 20.5352 6.0651 20.2009C6.55478 19.8995 6.9415 19.6616 7.79337 19.6616C8.64524 19.6616 9.03196 19.8995 9.52165 20.201C10.0648 20.5353 10.6805 20.9141 11.8641 20.9141C13.0476 20.9141 13.6633 20.5352 14.2065 20.2009C14.6962 19.8995 15.0829 19.6616 15.9347 19.6616C16.7866 19.6616 17.1733 19.8995 17.663 20.2009C18.205 20.5344 18.8191 20.9123 19.9973 20.9141H20.0027H20.0081C21.1862 20.9124 21.8003 20.5344 22.3423 20.2009C22.832 19.8995 23.2187 19.6616 24.0706 19.6616C24.9224 19.6616 25.3092 19.8995 25.7988 20.2009C26.342 20.5352 26.9577 20.9141 28.1413 20.9141C29.3248 20.9141 29.9405 20.5352 30.4837 20.2009C30.9734 19.8995 31.3601 19.6616 32.2119 19.6616C33.0638 19.6616 33.4505 19.8995 33.9402 20.201C34.4834 20.5353 35.0991 20.9141 36.2883 20.9141C37.4718 20.9141 38.0875 20.5352 38.6307 20.201C38.9356 20.0133 39.199 19.8512 39.5641 19.7544C39.8768 19.6714 40.0632 19.3506 39.9803 19.0378C39.8973 18.725 39.5766 18.5385 39.2637 18.6217C38.7318 18.7627 38.3518 18.9966 38.0165 19.2029C37.5268 19.5042 37.1401 19.7422 36.2826 19.7422C35.767 19.7422 35.4221 19.6546 35.1213 19.519C36.109 18.815 36.9069 17.8847 37.4582 16.7821L39.9379 11.8225C40.0288 11.6409 40.0191 11.4252 39.9123 11.2525C39.8055 11.0797 39.6169 10.9746 39.4139 10.9746H38.1211V9.05553C38.1211 8.73194 37.8587 8.46959 37.5351 8.46959H35.6161V6.55054C35.6161 6.22695 35.3537 5.9646 35.0301 5.9646H25.0099C24.6864 5.9646 24.424 6.22695 24.424 6.55054V8.46959H22.505C22.1814 8.46959 21.919 8.73194 21.919 9.05553V13.4797H16.2021V7.1364H16.8686C17.1922 7.1364 17.4546 6.87405 17.4546 6.55046C17.4546 6.22687 17.1922 5.96453 16.8686 5.96453H12.4444V2.12634H13.111C13.4346 2.12634 13.6969 1.864 13.6969 1.5404C13.6969 1.21681 13.4346 0.954468 13.111 0.954468H4.34346C4.01987 0.954468 3.75753 1.21681 3.75753 1.5404V9.05545C3.75753 9.37904 4.01987 9.64139 4.34346 9.64139C4.66706 9.64139 4.9294 9.37904 4.9294 9.05545V7.1364H15.0302V8.46952H14.3637C14.0401 8.46952 13.7777 8.73186 13.7777 9.05545C13.7777 9.37904 14.0401 9.64139 14.3637 9.64139H15.0302V13.4796H8.72727C8.3597 13.4796 8.06071 13.1805 8.06071 12.813V11.5604C8.06071 11.2368 7.79837 10.9745 7.47478 10.9745H0.5859C0.388948 10.9745 0.20512 11.0735 0.0967613 11.2379C-0.0116758 11.4023 -0.0301914 11.6102 0.0473865 11.7912L3.45097 19.7332ZM11.2726 2.12642V3.45954H10.606C10.2824 3.45954 10.0201 3.72188 10.0201 4.04547C10.0201 4.36906 10.2824 4.63141 10.606 4.63141H11.2726V5.96453H4.9294V2.12634L11.2726 2.12642ZM36.9492 10.9746H33.111V9.64147H36.9492V10.9746ZM28.1009 10.9746V9.64147H31.9391V10.9746H28.1009ZM34.4441 8.46959H30.6059V7.13648H34.4441V8.46959ZM25.5959 7.1364H29.4341V8.46952H25.5959V7.1364ZM23.0908 9.64147H26.929V10.9746H23.0908V9.64147ZM23.0908 12.1465H26.5669L26.0846 13.1112C25.971 13.3385 25.7425 13.4797 25.4884 13.4797H23.0909V12.1465H23.0908ZM6.88877 12.1465V12.8131C6.88877 13.8268 7.71353 14.6515 8.7272 14.6515H25.4883C26.1892 14.6515 26.8192 14.2621 27.1326 13.6352L27.877 12.1465H38.4657L37.7991 13.4797H29.3938C29.0702 13.4797 28.8078 13.742 28.8078 14.0656C28.8078 14.3892 29.0702 14.6515 29.3938 14.6515H37.2133L36.4101 16.2581C35.8607 17.3569 35.0208 18.2529 33.9693 18.8703C33.538 18.6587 33.0017 18.4897 32.2119 18.4897C31.0284 18.4897 30.4127 18.8686 29.8695 19.2029C29.3798 19.5042 28.9931 19.7422 28.1413 19.7422C27.2894 19.7422 26.9027 19.5042 26.413 19.2028C25.8698 18.8685 25.2541 18.4897 24.0706 18.4897C22.8871 18.4897 22.2714 18.8686 21.7282 19.2029C21.239 19.5039 20.8525 19.7417 20.0027 19.7422C19.1529 19.7417 18.7663 19.5038 18.2772 19.2028C17.734 18.8685 17.1183 18.4897 15.9348 18.4897C14.7513 18.4897 14.1356 18.8686 13.5924 19.2029C13.1027 19.5042 12.716 19.7422 11.8641 19.7422C11.0123 19.7422 10.6255 19.5042 10.1359 19.2028C9.59266 18.8685 8.97696 18.4897 7.79345 18.4897C6.60994 18.4897 5.99424 18.8686 5.45104 19.2029C5.19065 19.3631 4.9587 19.505 4.67018 19.6032L1.47449 12.1465H6.88877Z" fill="#131313"/>
<path d="M39.9806 22.1691C39.8976 21.8563 39.5769 21.6698 39.264 21.7529C38.7321 21.894 38.3521 22.1278 38.0168 22.3342C37.5272 22.6355 37.1404 22.8735 36.283 22.8735C35.4312 22.8735 35.0444 22.6355 34.5548 22.3341C34.0116 21.9998 33.3958 21.621 32.2123 21.621C31.0288 21.621 30.4131 21.9999 29.8699 22.3342C29.3802 22.6355 28.9935 22.8735 28.1416 22.8735C27.2898 22.8735 26.9031 22.6355 26.4134 22.3341C25.8702 21.9998 25.2545 21.621 24.071 21.621C22.8875 21.621 22.2718 21.9999 21.7286 22.3342C21.2394 22.6352 20.8529 22.8729 20.0031 22.8735C19.1532 22.8729 18.7667 22.6351 18.2776 22.3341C17.7344 21.9998 17.1187 21.621 15.9352 21.621C14.7517 21.621 14.136 21.9999 13.5928 22.3342C13.1031 22.6355 12.7164 22.8735 11.8645 22.8735C11.0127 22.8735 10.6259 22.6355 10.1363 22.3341C9.59305 21.9998 8.97735 21.621 7.79384 21.621C6.61033 21.621 5.99463 21.9999 5.45143 22.3342C4.96174 22.6355 4.57502 22.8735 3.7176 22.8735C2.86581 22.8735 2.47902 22.6355 1.98933 22.3342C1.65402 22.1278 1.27402 21.894 0.742148 21.7529C0.429336 21.6698 0.108556 21.8563 0.0255879 22.1691C-0.0573806 22.4819 0.128947 22.8027 0.441758 22.8857C0.806835 22.9824 1.07019 23.1445 1.37519 23.3322C1.91839 23.6665 2.53409 24.0453 3.72323 24.0453C4.90674 24.0453 5.52244 23.6664 6.06564 23.3321C6.55533 23.0308 6.94205 22.7928 7.79392 22.7928C8.64579 22.7928 9.03251 23.0308 9.52219 23.3322C10.0654 23.6665 10.6811 24.0453 11.8646 24.0453C13.0481 24.0453 13.6638 23.6664 14.207 23.3321C14.6967 23.0308 15.0834 22.7928 15.9353 22.7928C16.7872 22.7928 17.1739 23.0308 17.6636 23.3321C18.2055 23.6656 18.8197 24.0435 19.9979 24.0453H20.0032H20.0086C21.1868 24.0436 21.8009 23.6656 22.3428 23.3321C22.8325 23.0308 23.2192 22.7928 24.0711 22.7928C24.923 22.7928 25.3097 23.0308 25.7994 23.3321C26.3426 23.6664 26.9583 24.0453 28.1418 24.0453C29.3253 24.0453 29.941 23.6664 30.4842 23.3321C30.9739 23.0308 31.3606 22.7928 32.2125 22.7928C33.0644 22.7928 33.4511 23.0308 33.9408 23.3322C34.484 23.6665 35.0997 24.0453 36.2888 24.0453C37.4723 24.0453 38.088 23.6664 38.6312 23.3322C38.9361 23.1446 39.1995 22.9824 39.5647 22.8857C39.8772 22.8027 40.0636 22.4819 39.9806 22.1691Z" fill="#131313"/>
<path d="M6.84845 4.63147H8.10095C8.42454 4.63147 8.68689 4.36913 8.68689 4.04553C8.68689 3.72194 8.42454 3.45959 8.10095 3.45959H6.84845C6.52486 3.45959 6.26251 3.72194 6.26251 4.04553C6.26251 4.36913 6.52486 4.63147 6.84845 4.63147Z" fill="#131313"/>
<path d="M8.10095 9.64148C8.42454 9.64148 8.68689 9.37914 8.68689 9.05554C8.68689 8.73195 8.42454 8.4696 8.10095 8.4696H6.84845C6.52486 8.4696 6.26251 8.73195 6.26251 9.05554C6.26251 9.37914 6.52486 9.64148 6.84845 9.64148H8.10095Z" fill="#131313"/>
<path d="M11.8589 9.64148C12.1825 9.64148 12.4449 9.37914 12.4449 9.05554C12.4449 8.73195 12.1825 8.4696 11.8589 8.4696H10.6064C10.2829 8.4696 10.0205 8.73195 10.0205 9.05554C10.0205 9.37914 10.2829 9.64148 10.6064 9.64148H11.8589Z" fill="#131313"/>
<path d="M11.2385 17.1566C11.5621 17.1566 11.8245 16.8943 11.8245 16.5707C11.8245 16.2471 11.5621 15.9847 11.2385 15.9847H11.2323C10.9087 15.9847 10.6495 16.2471 10.6495 16.5707C10.6495 16.8943 10.9149 17.1566 11.2385 17.1566Z" fill="#131313"/>
<path d="M16.2423 17.1566C16.5659 17.1566 16.8282 16.8943 16.8282 16.5707C16.8282 16.2471 16.5659 15.9847 16.2423 15.9847H16.236C15.9124 15.9847 15.6532 16.2471 15.6532 16.5707C15.6532 16.8943 15.9187 17.1566 16.2423 17.1566Z" fill="#131313"/>
<path d="M21.259 17.1566C21.5826 17.1566 21.8449 16.8943 21.8449 16.5707C21.8449 16.2471 21.5826 15.9847 21.259 15.9847H21.2527C20.9291 15.9847 20.6699 16.2471 20.6699 16.5707C20.6699 16.8943 20.9354 17.1566 21.259 17.1566Z" fill="#131313"/>
<path d="M13.7436 17.1566C14.0672 17.1566 14.3295 16.8943 14.3295 16.5707C14.3295 16.2471 14.0672 15.9847 13.7436 15.9847H13.7374C13.4138 15.9847 13.1545 16.2471 13.1545 16.5707C13.1545 16.8943 13.42 17.1566 13.7436 17.1566Z" fill="#131313"/>
<path d="M18.7474 17.1566C19.071 17.1566 19.3333 16.8943 19.3333 16.5707C19.3333 16.2471 19.071 15.9847 18.7474 15.9847H18.7411C18.4175 15.9847 18.1583 16.2471 18.1583 16.5707C18.1583 16.8943 18.4238 17.1566 18.7474 17.1566Z" fill="#131313"/>
<path d="M23.7637 17.1566C24.0873 17.1566 24.3497 16.8943 24.3497 16.5707C24.3497 16.2471 24.0873 15.9847 23.7637 15.9847H23.7575C23.4339 15.9847 23.1747 16.2471 23.1747 16.5707C23.1747 16.8943 23.4402 17.1566 23.7637 17.1566Z" fill="#131313"/>
</svg>
