<svg width="251" height="74" viewBox="0 0 251 74" fill="none" xmlns="http://www.w3.org/2000/svg">
<path fill-rule="evenodd" clip-rule="evenodd" d="M233.197 11.6846H227.796V21.1298H233.041C234.444 21.1298 235.625 20.9851 236.586 20.6957C237.547 20.4063 238.274 19.9064 238.781 19.2223C239.287 18.5251 239.534 17.578 239.534 16.3546C239.534 15.4074 239.326 14.5655 238.923 13.8288C238.521 13.1053 237.949 12.5528 237.222 12.1976C236.547 11.8556 235.197 11.6846 233.184 11.6846H233.197ZM32.4811 35.5607L26.8717 15.3022L21.1845 35.5607C20.743 37.0998 20.3924 38.1917 20.1197 38.8626C19.86 39.5335 19.4056 40.1386 18.7564 40.6648C18.1071 41.191 17.2502 41.4541 16.1724 41.4541C15.3025 41.4541 14.5883 41.2963 14.0169 40.9805C13.4586 40.6648 13.0042 40.2175 12.6536 39.6387C12.303 39.0599 12.0174 38.3759 11.8096 37.5866C11.5889 36.7973 11.3941 36.0606 11.2123 35.3897L5.43413 12.6317C5.08355 11.3162 4.91476 10.3033 4.91476 9.6061C4.91476 8.73787 5.2264 7.98806 5.86265 7.39608C6.49889 6.80411 7.27797 6.50154 8.21286 6.50154C9.48535 6.50154 10.3553 6.90935 10.7968 7.69864C11.2383 8.50109 11.6148 9.65871 11.9524 11.1847L16.497 30.917L21.587 12.4607C21.9635 11.04 22.3012 9.96128 22.5998 9.23776C22.9115 8.50109 23.3919 7.8565 24.0671 7.33031C24.7423 6.79096 25.6641 6.51471 26.8327 6.51471C28.0014 6.51471 28.9363 6.80412 29.5855 7.35662C30.2348 7.90913 30.6892 8.52741 30.9489 9.18515C31.1956 9.8429 31.5332 10.9347 31.9617 12.4607L37.0906 30.917L41.6352 11.1847C41.856 10.1586 42.0637 9.343 42.2715 8.76419C42.4662 8.18537 42.8039 7.65917 43.2843 7.19875C43.7647 6.73833 44.4659 6.50154 45.3878 6.50154C46.3097 6.50154 47.0758 6.80411 47.712 7.39608C48.3483 7.98806 48.6729 8.72473 48.6729 9.61927C48.6729 10.2507 48.5041 11.2505 48.1535 12.6449L42.3754 35.4029C41.9728 36.942 41.6482 38.0602 41.3885 38.7837C41.1288 39.494 40.6873 40.1255 40.0641 40.6517C39.4408 41.191 38.5579 41.4673 37.4152 41.4673C36.3505 41.4673 35.4805 41.2042 34.8313 40.678C34.1821 40.1649 33.7276 39.573 33.4809 38.9152C33.2342 38.2575 32.8706 37.1393 32.4162 35.5607H32.4811ZM155.069 10.3033L168.638 30.4961V10.1191C168.638 8.79049 168.923 7.80388 169.508 7.14614C170.079 6.48839 170.858 6.14637 171.858 6.14637C172.858 6.14637 173.663 6.47525 174.26 7.13299C174.844 7.79074 175.13 8.79049 175.13 10.1191V37.0604C175.13 40.0729 173.87 41.5725 171.325 41.5725C170.689 41.5725 170.131 41.4804 169.612 41.2963C169.105 41.1252 168.625 40.8358 168.183 40.4412C167.742 40.0597 167.326 39.5993 166.95 39.0731C166.573 38.56 166.184 38.0207 165.807 37.4682L152.576 17.5254V37.5866C152.576 38.8889 152.264 39.8887 151.654 40.5596C151.043 41.2305 150.239 41.5594 149.278 41.5594C148.317 41.5594 147.473 41.2305 146.875 40.5464C146.278 39.8624 145.979 38.8758 145.979 37.5866V11.1584C145.979 10.0402 146.109 9.15883 146.356 8.51424C146.655 7.81703 147.148 7.23822 147.849 6.79095C148.55 6.35684 149.304 6.13321 150.109 6.13321C150.745 6.13321 151.277 6.23846 151.732 6.43578C152.186 6.63311 152.589 6.90935 152.926 7.25138C153.264 7.59341 153.601 8.02751 153.965 8.58002C154.316 9.11937 154.692 9.68503 155.082 10.2902L155.069 10.3033ZM206.033 11.7898H194.893V20.4326H205.163C205.916 20.4326 206.488 20.6825 206.851 21.1561C207.215 21.6428 207.41 22.2874 207.41 23.0899C207.41 23.8923 207.228 24.5369 206.864 25.05C206.501 25.5498 205.929 25.7998 205.163 25.7998H194.893V35.8107H206.423C207.202 35.8107 207.786 36.0738 208.176 36.5868C208.578 37.113 208.773 37.7971 208.773 38.6653C208.773 39.5335 208.578 40.1781 208.176 40.6911C207.786 41.2042 207.202 41.4673 206.423 41.4673H192.984C191.906 41.4673 191.127 41.1252 190.66 40.4412C190.192 39.7571 189.958 38.639 189.958 37.113V10.6716C189.958 9.64556 190.062 8.81681 190.283 8.17222C190.491 7.52763 190.828 7.05405 191.27 6.75149C191.724 6.46208 192.296 6.30423 192.997 6.30423H206.059C206.851 6.30423 207.436 6.55416 207.825 7.05405C208.202 7.56709 208.397 8.21169 208.397 9.04045C208.397 9.86921 208.202 10.5401 207.825 11.04C207.449 11.5399 206.851 11.7898 206.059 11.7898H206.033ZM229.847 26.1155H227.796V37.1525C227.796 38.5995 227.523 39.6782 226.99 40.3623C226.458 41.0463 225.744 41.3883 224.874 41.3883C223.952 41.3883 223.225 41.0332 222.706 40.3096C222.199 39.5861 221.939 38.5469 221.939 37.1525V10.7243C221.939 9.22461 222.225 8.14591 222.783 7.47501C223.355 6.80411 224.264 6.46208 225.523 6.46208H235.041C236.352 6.46208 237.469 6.52787 238.417 6.65941C239.352 6.79096 240.196 7.05406 240.936 7.46186C241.845 7.92229 242.65 8.56687 243.338 9.40878C244.026 10.2507 244.559 11.2373 244.922 12.3555C245.286 13.4737 245.468 14.6444 245.468 15.9073C245.468 18.4725 244.857 20.5115 243.65 22.0375C242.429 23.5766 240.585 24.6553 238.118 25.2867L235.807 25.7472L245.792 37.8628L245.987 38.5995C246.104 39.0336 245.87 39.5072 245.623 39.9545C245.377 40.3886 245.052 40.7438 244.624 41.0069C244.195 41.2568 243.715 41.3883 243.169 41.3883C242.52 41.3883 241.962 41.2042 241.52 40.8358C241.079 40.4675 240.754 39.9413 240.365 39.4414L229.847 26.1155ZM230.094 13.5131L230.016 19.5381L233.379 19.4986C233.976 19.4986 234.522 19.4591 235.002 19.3933C238.495 18.9724 238.027 13.6052 234.729 13.4868C233.223 13.4342 231.652 13.5789 230.081 13.5L230.094 13.5131ZM233.197 15.1969L231.912 15.1575L231.873 18.0384H233.392C233.652 18.0384 233.924 18.0384 234.197 18.0121C234.47 17.9989 234.586 17.9726 234.781 17.9595C235.911 17.9595 235.95 15.2759 234.69 15.1838C234.327 15.1706 233.639 15.1969 233.197 15.1969ZM28.1442 36.7447L28.1702 36.8236V36.7973L28.1312 36.692L26.8457 32.0352L25.5343 36.7052L25.5084 36.771C25.4175 37.0867 25.3136 37.4419 25.1967 37.8234C25.1059 38.1391 25.0019 38.468 24.885 38.8231C24.7812 39.1389 24.6903 39.4283 24.5994 39.7045C24.5215 39.9281 24.4306 40.1649 24.3397 40.4149C24.2099 40.7569 24.0411 41.1121 23.8463 41.4541C23.6515 41.7961 23.4438 42.125 23.2231 42.4144C23.0023 42.7038 22.7556 42.9932 22.4959 43.2563C22.2362 43.5326 21.9506 43.7825 21.6649 44.0193C21.2883 44.335 20.8599 44.6113 20.4054 44.8481C19.951 45.098 19.4705 45.2822 19.0031 45.44C18.5746 45.5716 18.1071 45.6768 17.6267 45.7426C17.1593 45.8084 16.6788 45.8478 16.1983 45.8478C15.3933 45.8478 14.6273 45.7558 13.9001 45.5848C13.147 45.4006 12.4458 45.1375 11.8225 44.7955L11.7836 44.7692C11.485 44.5981 11.1993 44.414 10.9137 44.2035C10.628 43.993 10.3553 43.7562 10.0956 43.4931C9.87491 43.2827 9.64116 43.0196 9.42042 42.7301C9.21267 42.467 9.01788 42.1908 8.8361 41.8619C8.68028 41.612 8.53744 41.362 8.42058 41.1121C8.30372 40.8884 8.18691 40.6253 8.07005 40.3359C7.95319 40.0334 7.84926 39.7703 7.77135 39.5335C7.66747 39.2309 7.57664 38.9678 7.51172 38.731C7.43381 38.4679 7.3429 38.1391 7.25201 37.7839C7.03127 36.942 6.97929 36.7578 6.96631 36.7183C6.96631 36.7183 6.94035 36.6394 6.94035 36.6C6.91438 36.4947 6.94035 36.5605 6.94035 36.6C6.94035 36.6263 6.95332 36.6657 6.96631 36.7052C6.86243 36.3237 6.86246 36.3105 6.9144 36.4684V36.4158L1.14923 13.7236C1.05834 13.3947 0.980415 13.0395 0.889522 12.6449C0.811615 12.3029 0.7467 11.9608 0.694761 11.6188C0.629838 11.2768 0.590903 10.9216 0.55195 10.5664C0.512996 10.1849 0.5 9.86921 0.5 9.61927C0.5 9.11938 0.551919 8.63264 0.642812 8.1459C0.733704 7.65917 0.889514 7.19875 1.08428 6.72517C1.27905 6.26475 1.5258 5.83065 1.81146 5.42285C2.09712 5.01505 2.4347 4.63354 2.81126 4.27836C3.17483 3.92318 3.57733 3.62063 4.00582 3.34437C4.43431 3.06812 4.8888 2.84448 5.36923 2.66031C5.82369 2.4893 6.30413 2.35775 6.79754 2.26566C7.30394 2.17358 7.79735 2.13413 8.29076 2.13413C8.91402 2.13413 9.51135 2.1999 10.1086 2.31829C10.7189 2.43669 11.2902 2.62085 11.8096 2.8708C12.4589 3.17336 13.0431 3.55485 13.5365 4.01527C14.0169 4.46253 14.4325 4.97557 14.7701 5.55439L14.848 5.68594C15.0298 6.01482 15.1856 6.35684 15.3414 6.72517C15.4712 7.05404 15.6141 7.43555 15.7699 7.86966C15.8868 8.22484 16.0036 8.61949 16.1204 9.04045C16.2373 9.4614 16.3412 9.88236 16.4321 10.3165L16.9645 12.6449L17.3151 11.3952C17.38 11.1715 17.4709 10.8164 17.6137 10.3165C17.7565 9.82974 17.8475 9.51402 17.8994 9.343C18.0033 9.02729 18.0941 8.72472 18.198 8.43531C18.3019 8.14591 18.4058 7.86965 18.4966 7.63286L18.5226 7.5934C18.6655 7.23822 18.8343 6.89619 19.0291 6.56732C19.2368 6.21214 19.4446 5.88326 19.6653 5.59385C19.886 5.30444 20.1457 5.00188 20.4313 4.71248C20.704 4.43622 21.0027 4.17314 21.3143 3.92319C21.7168 3.60748 22.1454 3.33121 22.5868 3.10758C23.0543 2.87079 23.5347 2.67348 24.0411 2.52878C24.4826 2.39723 24.95 2.30514 25.4435 2.23937C25.9369 2.17359 26.4302 2.13413 26.9106 2.13413C27.3911 2.13413 27.8975 2.17359 28.4039 2.23937C28.8973 2.30514 29.3777 2.41037 29.8322 2.55507C30.3516 2.71293 30.845 2.92341 31.3254 3.17335C31.7929 3.4233 32.2344 3.72587 32.6369 4.0679C32.9485 4.331 33.2212 4.58094 33.4549 4.83088C33.7016 5.08083 33.9224 5.35707 34.1561 5.65963C34.3768 5.94904 34.5846 6.26477 34.7664 6.61995C34.9612 6.97513 35.13 7.30399 35.2468 7.63286L35.2727 7.71179V7.73811C35.3636 7.97489 35.4415 8.19853 35.5194 8.42217C35.6103 8.69842 35.7013 8.97468 35.7922 9.25093C35.8701 9.48772 35.961 9.81659 36.0779 10.2112C36.1947 10.6059 36.2986 10.9742 36.3895 11.3162V11.3557L36.779 12.7238L37.3243 10.3428V10.2902V10.2375C37.3763 9.9876 37.4412 9.7245 37.4931 9.44825C37.584 9.06675 37.636 8.82997 37.6619 8.75104C37.7139 8.56687 37.7788 8.33008 37.8697 8.02751C37.9476 7.75126 38.0255 7.52763 38.0775 7.36977C38.1813 7.08036 38.2982 6.79095 38.441 6.50154C38.5838 6.18582 38.7526 5.89642 38.9344 5.62017C39.1162 5.34391 39.311 5.08083 39.5187 4.83088C39.7265 4.58094 39.9602 4.33098 40.2069 4.09419C40.5705 3.73901 40.973 3.43645 41.4145 3.17335C41.817 2.92341 42.2845 2.71294 42.8039 2.54192C43.2064 2.39722 43.6479 2.30513 44.1023 2.2262C44.5698 2.16043 45.0242 2.12096 45.4527 2.12096C45.9331 2.12096 46.4266 2.16043 46.933 2.25252C47.4264 2.3446 47.9068 2.47615 48.3612 2.64717C48.8287 2.83134 49.2702 3.04181 49.6987 3.31806C50.1142 3.58116 50.5167 3.88372 50.8803 4.22575C51.2698 4.58093 51.6074 4.96242 51.8931 5.37022C52.1788 5.76487 52.4255 6.21215 52.6332 6.69888C52.841 7.18561 52.9968 7.65918 53.0877 8.13276C53.1915 8.61949 53.2435 9.11938 53.2435 9.61927C53.2435 9.85605 53.2305 10.1586 53.1916 10.5269C53.1526 10.8427 53.1136 11.1715 53.0487 11.5267V11.5662C52.9967 11.8687 52.9318 12.1976 52.8539 12.5397C52.789 12.8159 52.6981 13.1974 52.5942 13.6447V13.6841L46.8161 36.4289V36.4684C46.7252 36.7841 46.6343 37.1656 46.5174 37.5997C46.3876 38.0601 46.2967 38.389 46.2447 38.5863C46.1668 38.8626 46.076 39.1652 45.9721 39.4809C45.8812 39.7703 45.7903 40.0334 45.7124 40.257C45.5696 40.6385 45.4267 40.9937 45.2579 41.3094C45.0891 41.6251 44.8814 41.9672 44.6477 42.296C44.401 42.6381 44.1673 42.9275 43.9465 43.1774C43.7388 43.401 43.466 43.651 43.1544 43.9404V43.9667C42.7908 44.2956 42.3494 44.5981 41.8559 44.8612C41.3885 45.1112 40.8821 45.3217 40.3628 45.4795C39.9213 45.6111 39.4538 45.7163 38.9734 45.7821C38.493 45.8478 37.9996 45.8873 37.5191 45.8873C37.0387 45.8873 36.5712 45.8478 36.1038 45.7821C35.6233 45.7163 35.1689 45.6111 34.7274 45.4795C34.234 45.3217 33.7536 45.1375 33.3121 44.9007C32.8577 44.6639 32.4421 44.3876 32.0526 44.0719C31.7539 43.822 31.4812 43.572 31.2345 43.3353C30.9748 43.0722 30.7411 42.7959 30.5074 42.5065C30.2737 42.204 30.053 41.8751 29.8712 41.533C29.6894 41.2042 29.5336 40.8621 29.3907 40.4806C29.2999 40.2439 29.2089 40.0071 29.131 39.7571C29.0401 39.494 28.9493 39.2046 28.8454 38.9152C28.7286 38.5469 28.6246 38.2049 28.5337 37.9023C28.4169 37.4945 28.3 37.1261 28.2091 36.7973L28.1442 36.7447ZM6.94035 36.7052C7.10915 37.3103 7.39481 38.3759 6.94035 36.7052V36.7052ZM10.654 35.7317C10.654 35.7317 10.615 35.587 10.628 35.6528C10.628 35.6791 10.641 35.7054 10.654 35.7317ZM30.001 36.2316V36.2053L26.8457 24.8658L23.6645 36.2185C23.4567 36.9815 23.249 37.6524 23.0543 38.2706C22.8595 38.8758 22.6907 39.3756 22.5348 39.7703C22.3271 40.2965 22.0285 40.8227 21.6649 41.3094C21.3143 41.7698 20.8988 42.2039 20.4183 42.5986C19.834 43.0722 19.1589 43.4273 18.4057 43.6641C17.7176 43.8746 16.9775 43.9799 16.1854 43.9799C14.861 43.9799 13.7183 43.7168 12.7575 43.1774C12.29 42.9012 11.8485 42.5723 11.459 42.1908C11.0954 41.8225 10.7578 41.4015 10.4722 40.9279C10.2255 40.5201 10.0177 40.0992 9.82294 39.6519C9.64115 39.2046 9.47236 38.731 9.34251 38.2575V38.2838C9.1867 37.705 8.97897 36.942 8.79718 36.2448C8.7842 36.1658 8.75818 36.1001 8.74519 36.0211L2.96707 13.2369C2.78528 12.566 2.64247 11.9082 2.53859 11.3162C2.42173 10.6585 2.36979 10.0797 2.36979 9.61927C2.36979 8.85628 2.51261 8.13275 2.81126 7.4487C3.09692 6.76464 3.53838 6.15952 4.09672 5.62017C4.65506 5.08082 5.30429 4.68617 6.00546 4.40992C6.70663 4.14682 7.44678 4.01527 8.22586 4.01527C9.23866 4.01527 10.1475 4.19944 10.9266 4.55462C11.8615 4.98873 12.5757 5.64649 13.0691 6.51471L13.0951 6.541C13.3807 7.0672 13.6404 7.68549 13.8871 8.42217C14.1079 9.09307 14.3156 9.8429 14.4974 10.6848V10.6453L16.7568 20.4721L19.1459 11.8161V11.8424C19.3277 11.0926 19.5224 10.4349 19.6912 9.86919C19.886 9.26407 20.0678 8.73789 20.2366 8.30378C20.4833 7.71181 20.7819 7.17245 21.1585 6.69888C21.535 6.21215 21.9765 5.76487 22.4699 5.37022C23.0802 4.89664 23.7814 4.54146 24.5604 4.30468C25.2746 4.0942 26.0407 3.98897 26.8717 3.98897C27.7027 3.98897 28.4948 4.09421 29.2089 4.31784C30.014 4.56779 30.7152 4.94927 31.3124 5.46231C31.7929 5.87012 32.2084 6.30422 32.533 6.75149C32.8966 7.23822 33.1823 7.75126 33.39 8.29061V8.31692C33.5588 8.72473 33.7146 9.21146 33.8964 9.77712C34.0652 10.3296 34.273 11.0137 34.4937 11.7898L36.9088 20.4984L39.1811 10.6322V10.6848C39.298 10.0534 39.4148 9.56664 39.5187 9.1983C39.6356 8.73788 39.7655 8.31692 39.8823 7.96174V8.0012C40.0381 7.50131 40.2588 7.0409 40.5445 6.60678C40.8172 6.18583 41.1418 5.79119 41.5313 5.42285C42.0507 4.92296 42.674 4.55463 43.4011 4.31784C44.0244 4.10737 44.7126 4.00212 45.4397 4.00212C46.2058 4.00212 46.9459 4.13367 47.6341 4.39677C48.3353 4.65987 48.9715 5.05451 49.5299 5.5807C50.1012 6.1069 50.5427 6.72519 50.8413 7.4224C51.14 8.11961 51.2958 8.84311 51.2958 9.6061C51.2958 10.0402 51.2438 10.5796 51.127 11.2373C51.0361 11.7898 50.8932 12.4344 50.6985 13.2105L44.9204 35.9817C44.7126 36.7973 44.5308 37.4813 44.362 38.047C44.1802 38.6653 44.0114 39.1915 43.8686 39.5993C43.6609 40.1649 43.3752 40.6911 43.0246 41.191C42.687 41.6646 42.2845 42.1119 41.817 42.5065H41.8429C41.2716 43.0064 40.5705 43.3879 39.7654 43.6378C39.0643 43.8483 38.3111 43.9535 37.4801 43.9535C36.6491 43.9535 35.948 43.8483 35.2598 43.6378C34.5067 43.401 33.8314 43.059 33.2471 42.5723H33.2731C32.7797 42.1908 32.3643 41.7698 32.0137 41.3094C31.6501 40.849 31.3644 40.3228 31.1436 39.7571C30.9878 39.3625 30.8191 38.8757 30.6373 38.2969C30.4425 37.6655 30.2217 36.9683 30.001 36.2185V36.2316ZM148.719 9.46139C148.719 9.46139 148.719 9.46141 148.719 9.47456V9.46139ZM158.821 7.89596L164.119 15.7757V10.106C164.119 9.61926 164.158 9.11937 164.223 8.60633C164.288 8.09329 164.392 7.61971 164.509 7.1856C164.664 6.6331 164.872 6.13321 165.132 5.64648C165.391 5.15975 165.703 4.71249 166.054 4.29153C166.417 3.88373 166.82 3.50224 167.261 3.18652C167.716 2.85765 168.196 2.58138 168.703 2.3709C169.209 2.16043 169.715 2.00257 170.235 1.89733C170.754 1.79209 171.287 1.73948 171.832 1.73948C172.377 1.73948 172.897 1.7921 173.416 1.88418C173.922 1.97626 174.429 2.13413 174.935 2.34461C175.468 2.56824 175.961 2.83133 176.402 3.13389C176.87 3.46276 177.285 3.8311 177.636 4.22575L177.675 4.29153C178.026 4.69933 178.337 5.13344 178.584 5.60702C178.844 6.09375 179.051 6.60679 179.22 7.14614C179.35 7.58025 179.441 8.05382 179.519 8.58002C179.584 9.09306 179.623 9.60611 179.623 10.0928V37.0341C179.623 38.2706 179.467 39.3888 179.155 40.3886C178.831 41.441 178.324 42.3749 177.636 43.1906C176.857 44.1114 175.935 44.7955 174.844 45.2559C173.793 45.7031 172.624 45.9268 171.325 45.9268C171.014 45.9268 170.741 45.9268 170.533 45.9005C170.378 45.9005 170.105 45.8479 169.728 45.7952C169.391 45.7426 169.105 45.69 168.884 45.6242C168.625 45.5584 168.378 45.4795 168.118 45.3874C167.872 45.3085 167.612 45.1901 167.326 45.0585C167.067 44.9402 166.807 44.7954 166.56 44.6507C166.326 44.506 166.093 44.3482 165.859 44.1903C165.638 44.0325 165.417 43.8615 165.21 43.6641C165.015 43.4931 164.846 43.3353 164.69 43.1906C164.535 43.0327 164.379 42.8617 164.21 42.6775C164.028 42.467 163.872 42.296 163.755 42.1513C163.626 41.9803 163.47 41.7961 163.327 41.5857C163.158 41.3489 163.028 41.1647 162.937 41.0332C162.509 40.4412 163.067 41.2305 162.73 40.7569V40.7174C162.548 40.4807 162.418 40.2965 162.327 40.1649C162.223 40.0202 162.158 39.9281 162.132 39.8887L162.08 39.8098L157.133 32.3509V37.5603C157.133 38.0733 157.094 38.5863 157.029 39.0994C156.952 39.6256 156.848 40.1123 156.718 40.5596C156.549 41.1121 156.328 41.6251 156.056 42.1119C155.77 42.6249 155.445 43.0722 155.082 43.4668C154.731 43.8483 154.329 44.2035 153.861 44.5324C153.407 44.8481 152.939 45.1112 152.446 45.3217C151.965 45.5321 151.459 45.6768 150.94 45.7821C150.42 45.8873 149.901 45.9268 149.356 45.9268C148.81 45.9268 148.278 45.8742 147.758 45.7689C147.226 45.6637 146.72 45.5058 146.226 45.3085C145.72 45.098 145.239 44.8218 144.785 44.4929C144.343 44.1772 143.928 43.8088 143.564 43.3879C143.201 42.9801 142.889 42.5328 142.617 42.0329C142.357 41.5462 142.136 41.0463 141.98 40.507C141.837 40.0465 141.734 39.573 141.669 39.0731C141.604 38.56 141.565 38.0601 141.565 37.5603V11.1321C141.565 10.7243 141.565 10.3822 141.591 10.0665C141.604 9.77712 141.643 9.43508 141.708 9.02728C141.76 8.64579 141.837 8.27747 141.915 7.93544C142.006 7.55395 142.123 7.21192 142.24 6.92251L142.266 6.85673L142.292 6.79095C142.461 6.40946 142.655 6.04112 142.863 5.69909C143.097 5.33076 143.331 5.00189 143.59 4.69933C143.837 4.42307 144.123 4.13367 144.46 3.84427C144.798 3.55486 145.136 3.30491 145.447 3.09443L145.551 3.04182C145.889 2.83134 146.226 2.64717 146.59 2.48931C146.966 2.3183 147.343 2.17359 147.732 2.06835C148.135 1.94995 148.537 1.85787 148.94 1.80525C149.356 1.73948 149.771 1.71316 150.186 1.71316C150.433 1.71316 150.719 1.72633 151.057 1.76579C151.368 1.7921 151.654 1.83156 151.913 1.88418C152.225 1.9368 152.524 2.01573 152.809 2.10781C153.108 2.1999 153.394 2.30514 153.666 2.42354C153.9 2.52877 154.147 2.64715 154.381 2.7787C154.653 2.92341 154.874 3.06813 155.056 3.18652C155.263 3.33123 155.458 3.48909 155.666 3.6601C155.861 3.83111 156.056 4.00212 156.237 4.18629C156.393 4.34415 156.536 4.51515 156.692 4.67301C156.887 4.88349 157.016 5.05451 157.107 5.1729C157.185 5.27814 157.302 5.43601 157.471 5.6728C157.666 5.94905 157.808 6.15953 157.912 6.33054C157.964 6.40947 158.016 6.48839 158.341 7.00143C158.562 7.35662 158.769 7.65917 158.912 7.89596H158.821ZM157.25 8.97467L157.224 8.92206L166.067 22.077V10.106C166.067 9.22461 166.171 8.42216 166.378 7.69864C166.625 6.84357 167.015 6.12005 167.547 5.51492C168.092 4.89664 168.742 4.40991 169.495 4.09419C170.222 3.77848 171.001 3.63378 171.845 3.63378C172.689 3.63378 173.468 3.77848 174.195 4.08105C174.974 4.39676 175.636 4.87034 176.182 5.47546V5.50178C176.727 6.1069 177.13 6.84358 177.376 7.68549C177.584 8.40901 177.701 9.22461 177.701 10.106V37.0472C177.701 39.1388 177.181 40.7964 176.156 42.0198C175 43.3879 173.39 44.0719 171.325 44.0719C170.91 44.0719 170.468 44.0325 170.027 43.9667C169.56 43.8878 169.131 43.7825 168.729 43.651H168.755C168.352 43.5194 167.95 43.3221 167.547 43.0853C167.157 42.8617 166.807 42.5986 166.469 42.3092C166.171 42.0461 165.885 41.7698 165.625 41.4804C165.353 41.1779 165.106 40.8753 164.859 40.5464C164.522 40.086 164.327 39.8098 164.262 39.7308C163.911 39.2441 163.716 38.9547 163.665 38.8889L163.639 38.8363L155.147 26.0234V37.5997C155.147 38.4943 155.03 39.3099 154.809 40.0465C154.536 40.9016 154.134 41.6383 153.576 42.2434C153.017 42.8485 152.368 43.3089 151.615 43.6247C150.901 43.9272 150.109 44.0851 149.278 44.0851C148.447 44.0851 147.642 43.9272 146.914 43.6247C146.161 43.3089 145.499 42.8354 144.941 42.2039C144.395 41.5857 143.993 40.8621 143.746 40.0202C143.525 39.2836 143.409 38.4811 143.409 37.5997V11.1715C143.409 10.5269 143.448 9.90867 143.538 9.32986C143.629 8.68527 143.772 8.1196 143.967 7.63286L143.993 7.56708C144.253 6.96196 144.577 6.42262 144.993 5.94904C145.408 5.47546 145.889 5.05451 146.447 4.69933H146.473C147.031 4.34415 147.603 4.08105 148.213 3.89688C148.836 3.71271 149.472 3.62062 150.122 3.62062C150.589 3.62062 151.043 3.66009 151.485 3.75217C151.952 3.84426 152.394 3.9758 152.796 4.15997C153.186 4.33099 153.55 4.5283 153.861 4.75194C154.186 4.97557 154.497 5.23868 154.783 5.52809C155.043 5.79119 155.277 6.06743 155.51 6.35684C155.679 6.56732 155.9 6.88303 156.224 7.38292C156.484 7.77756 156.757 8.18537 157.276 9.01413L157.25 8.97467ZM199.398 15.8152V16.644L207.436 16.6571C208.137 16.6571 208.747 17.0649 209.318 17.4464C209.734 17.7227 210.11 18.0647 210.435 18.4857L210.487 18.5383C210.734 18.8672 210.941 19.2223 211.136 19.6038C211.318 19.959 211.461 20.3537 211.591 20.7878C211.695 21.1298 211.773 21.5113 211.824 21.9059C211.876 22.3137 211.902 22.6952 211.902 23.0504C211.902 23.4056 211.876 23.7871 211.824 24.1817C211.773 24.5895 211.695 24.9579 211.604 25.2867C211.487 25.6945 211.344 26.076 211.162 26.4575C210.98 26.8522 210.76 27.2074 210.539 27.5231L210.448 27.6152C210.136 28.023 209.786 28.3913 209.383 28.707C209.305 28.7728 209.228 28.8254 209.137 28.8912V29.049L207.994 29.5489C207.566 29.7331 207.098 29.891 206.605 29.983C206.111 30.0751 205.631 30.1277 205.137 30.1277H199.372V31.3643H206.397C206.89 31.3643 207.371 31.4169 207.864 31.509C208.358 31.6143 208.825 31.759 209.254 31.9431C209.747 32.1668 210.214 32.443 210.63 32.7719C211.045 33.1007 211.422 33.4823 211.747 33.9164C212.019 34.2715 212.253 34.6399 212.448 35.0345C212.642 35.416 212.798 35.837 212.915 36.2711C213.019 36.6394 213.097 37.0341 213.149 37.4156C213.201 37.8365 213.227 38.2312 213.227 38.5863C213.227 38.9415 213.201 39.3493 213.149 39.7571C213.097 40.1649 213.019 40.5464 212.915 40.9016C212.798 41.3226 212.629 41.7304 212.435 42.125C212.227 42.5328 212.006 42.9012 211.747 43.2432C211.422 43.6641 211.058 44.0325 210.643 44.3613C210.214 44.6902 209.76 44.9796 209.266 45.1901C208.825 45.3874 208.358 45.5321 207.877 45.6242C207.384 45.7295 206.89 45.7689 206.397 45.7689H192.958C191.672 45.7689 190.517 45.519 189.504 45.0323C188.452 44.5324 187.582 43.7825 186.907 42.7828C186.608 42.3486 186.362 41.8882 186.167 41.4147C185.985 40.9542 185.829 40.4543 185.712 39.8755C185.622 39.4414 185.557 38.981 185.505 38.4943C185.453 37.9681 185.427 37.4813 185.427 37.0209V10.5796C185.427 10.2112 185.427 9.88235 185.453 9.6061C185.466 9.31669 185.505 9.00097 185.544 8.65894C185.583 8.35638 185.635 8.04067 185.712 7.69864C185.959 6.5147 186.401 5.58071 186.933 4.76511C187.154 4.43623 187.426 4.12051 187.751 3.81795C188.063 3.51539 188.387 3.25228 188.725 3.02865C189.049 2.81817 189.387 2.63401 189.751 2.47615C190.114 2.31829 190.478 2.18675 190.867 2.09466C191.192 2.01573 191.542 1.94995 191.906 1.89733C192.296 1.84471 192.646 1.83157 192.971 1.83157H206.033C206.527 1.83157 207.02 1.88418 207.488 1.96311C207.955 2.05519 208.409 2.1999 208.864 2.39722C209.37 2.6077 209.838 2.88394 210.266 3.21282C210.669 3.51538 211.019 3.88373 211.344 4.29153L211.435 4.39677C211.682 4.72564 211.902 5.09397 212.097 5.47546C212.279 5.8438 212.422 6.23846 212.552 6.65941C212.655 7.0146 212.733 7.38292 212.785 7.77757C212.837 8.18537 212.863 8.58002 212.863 8.94835C212.863 9.31669 212.837 9.71134 212.785 10.1191C212.733 10.5269 212.655 10.9084 212.552 11.2636C212.435 11.6846 212.279 12.0792 212.097 12.4476C211.902 12.8554 211.682 13.2237 211.435 13.5394L211.344 13.6447C211.019 14.0656 210.656 14.4208 210.279 14.7234C209.851 15.0522 209.383 15.3285 208.89 15.539H208.851C208.41 15.7363 207.63 15.7363 207.124 15.7363H199.411L199.398 15.8152ZM206.033 14.2761H197.464V17.9068H205.15C205.89 17.9068 206.566 18.0384 207.176 18.3015C207.877 18.604 208.448 19.0513 208.903 19.6433L208.929 19.6696C209.28 20.1432 209.552 20.6957 209.734 21.3271C209.89 21.8796 209.981 22.4584 209.981 23.0899C209.981 23.7213 209.903 24.287 209.76 24.8395C209.591 25.4578 209.331 26.0103 208.981 26.497H208.955C208.5 27.1284 207.929 27.5889 207.241 27.8914C206.618 28.1808 205.929 28.3124 205.176 28.3124H197.489V33.3112H206.449C207.202 33.3112 207.903 33.4559 208.526 33.7322C209.228 34.0348 209.812 34.4952 210.266 35.1134C210.656 35.6265 210.942 36.2053 211.123 36.8499C211.292 37.4287 211.37 38.047 211.37 38.6784C211.37 39.3099 211.292 39.915 211.123 40.4806C210.942 41.1252 210.656 41.6909 210.266 42.2039C209.812 42.7959 209.228 43.2563 208.526 43.5721C207.89 43.8483 207.202 43.993 206.449 43.993H193.01C191.023 43.993 189.53 43.2827 188.556 41.8488C188.128 41.2305 187.829 40.4806 187.647 39.6124C187.491 38.8626 187.413 38.0338 187.413 37.1261V10.6848C187.413 10.0797 187.452 9.51401 187.517 8.98782C187.595 8.409 187.699 7.89598 187.855 7.4224C188.037 6.8699 188.283 6.36999 188.595 5.92272C188.946 5.42284 189.361 5.01505 189.867 4.68618C190.322 4.38362 190.841 4.15997 191.426 4.01527C191.945 3.88372 192.477 3.81795 193.036 3.81795H206.098C206.838 3.81795 207.527 3.9495 208.163 4.22575C208.877 4.52831 209.461 4.98873 209.929 5.59385H209.955C210.318 6.10689 210.591 6.65942 210.773 7.2777C210.942 7.8302 211.019 8.43533 211.019 9.06676C211.019 9.6982 210.942 10.3033 210.773 10.869C210.591 11.5004 210.318 12.0529 209.955 12.5397L209.929 12.566C209.461 13.1711 208.877 13.6315 208.176 13.9341C207.553 14.1972 206.864 14.3419 206.111 14.3419L206.033 14.2761ZM232.301 36.3895V37.1261C232.301 38.2838 232.158 39.3493 231.886 40.3096C231.6 41.3357 231.159 42.2303 230.561 42.9801C230.211 43.4274 229.834 43.822 229.432 44.1509C229.016 44.4929 228.562 44.7823 228.055 45.0323C227.575 45.269 227.055 45.4532 226.51 45.5716C225.965 45.69 225.419 45.7558 224.874 45.7558C223.653 45.7558 222.537 45.5058 221.55 45.0059C220.563 44.506 219.719 43.7562 219.018 42.7828C218.719 42.3618 218.46 41.9145 218.252 41.4409C218.044 40.9805 217.888 40.4938 217.758 39.9676C217.655 39.5466 217.577 39.0862 217.525 38.5995C217.473 38.0996 217.447 37.6129 217.447 37.1261V10.698C217.447 10.1718 217.473 9.65873 217.538 9.14569C217.603 8.63265 217.68 8.14591 217.797 7.69864C217.953 7.11983 218.148 6.58048 218.395 6.0806C218.654 5.5544 218.966 5.08082 219.317 4.65986C219.706 4.19944 220.161 3.77848 220.68 3.4233C221.173 3.08127 221.719 2.80502 222.329 2.58139C222.822 2.39722 223.342 2.26567 223.887 2.17359C224.432 2.08151 224.978 2.04203 225.536 2.04203H235.054C235.885 2.04203 236.586 2.0552 237.144 2.09466C237.339 2.09466 237.664 2.13412 238.105 2.18674C238.469 2.2262 238.793 2.26566 239.079 2.30513C239.443 2.35775 239.78 2.42353 240.118 2.50246C240.481 2.58139 240.819 2.67346 241.144 2.7787C241.481 2.88394 241.832 3.0155 242.169 3.16021C242.494 3.29176 242.78 3.43645 243.052 3.58115C243.078 3.59431 243.104 3.60746 243.13 3.62062C243.494 3.80478 243.818 3.98897 244.091 4.17314C244.442 4.39677 244.779 4.63354 245.091 4.89664C245.39 5.14659 245.688 5.4097 245.987 5.71226C246.26 5.98851 246.532 6.27792 246.805 6.59364L246.87 6.65941C247.13 6.97513 247.376 7.30399 247.61 7.67233C247.857 8.04066 248.077 8.39586 248.259 8.73789C248.441 9.07992 248.623 9.44824 248.792 9.85605C248.934 10.1981 249.077 10.5927 249.22 11.0137C249.337 11.3689 249.441 11.7635 249.545 12.1976C249.636 12.6054 249.726 13.0132 249.778 13.421C249.843 13.8815 249.895 14.3024 249.921 14.6444C249.947 15.0128 249.96 15.4206 249.96 15.881C249.96 16.6834 249.908 17.4859 249.791 18.2883C249.688 19.0776 249.519 19.8275 249.311 20.5641C249.077 21.3534 248.792 22.0901 248.441 22.761C248.09 23.4451 247.675 24.0897 247.182 24.7079C246.701 25.3131 246.169 25.8656 245.571 26.3786C244.974 26.8916 244.325 27.3521 243.65 27.7599C243.546 27.8256 243.442 27.8783 243.338 27.9309L249.259 35.1266L249.48 35.4555L249.973 36.4026L250.129 36.7841L250.324 37.5208C250.48 38.0865 250.519 38.6258 250.493 39.1388C250.467 39.6387 250.363 40.1255 250.207 40.5859C250.116 40.8621 250.012 41.1252 249.895 41.3752C249.817 41.5594 249.701 41.7698 249.571 41.9935C249.415 42.2697 249.259 42.5328 249.077 42.7828C248.896 43.0327 248.688 43.2826 248.48 43.5063C248.259 43.7431 248.039 43.9535 247.792 44.1509C247.519 44.3745 247.272 44.5587 247.039 44.7034L246.935 44.756C246.649 44.927 246.364 45.0717 246.065 45.2033C245.766 45.3348 245.442 45.44 245.104 45.5321C244.818 45.6111 244.494 45.6768 244.13 45.7163C243.767 45.7558 243.442 45.7821 243.143 45.7821C242.754 45.7821 242.364 45.7426 241.949 45.69C241.546 45.6242 241.157 45.5321 240.793 45.4137C240.378 45.269 239.988 45.1112 239.624 44.9007C239.248 44.7034 238.91 44.4666 238.586 44.1903L237.898 43.6247V43.5326C237.807 43.4405 237.729 43.3353 237.638 43.2432C237.378 42.9406 237.196 42.6775 237.002 42.4276C236.95 42.3486 237.079 42.5197 236.872 42.2566C236.833 42.2039 236.807 42.1645 236.794 42.1382V42.1119L232.288 36.4158L232.301 36.3895ZM230.366 30.8644V37.1261C230.366 39.1257 229.925 40.7043 229.029 41.8488C228.523 42.5065 227.912 43.0064 227.198 43.3484C226.484 43.6905 225.705 43.8746 224.874 43.8746C223.056 43.8746 221.628 43.1511 220.602 41.7041C220.161 41.0858 219.836 40.3491 219.641 39.5203C219.472 38.81 219.382 38.0075 219.382 37.1261V10.698C219.382 9.7508 219.485 8.89575 219.68 8.15907C219.914 7.25138 220.29 6.4884 220.823 5.85696C221.394 5.17291 222.121 4.67301 223.017 4.34414C223.77 4.06789 224.614 3.92319 225.549 3.92319H235.067C235.82 3.92319 236.482 3.93634 237.041 3.9758C237.625 4.01527 238.209 4.06789 238.806 4.15997H238.781C239.404 4.2389 240.001 4.38361 240.546 4.55462C241.131 4.73879 241.689 4.97557 242.208 5.26498L242.13 5.22552C242.78 5.55439 243.364 5.92273 243.883 6.34369C244.403 6.76465 244.896 7.25137 245.364 7.81703H245.39C245.844 8.39585 246.234 8.97466 246.571 9.6061C246.896 10.2112 247.169 10.869 247.402 11.6056C247.623 12.2634 247.792 12.9606 247.896 13.6973C248.013 14.4208 248.064 15.1443 248.064 15.8941C248.064 17.3938 247.87 18.7751 247.493 20.0511C247.104 21.3797 246.493 22.5505 245.688 23.5634C244.883 24.5895 243.883 25.4446 242.689 26.1418C241.975 26.5628 241.196 26.9311 240.326 27.2337L247.792 36.2974L248.285 37.2446L248.48 37.9812C248.675 38.7179 248.597 39.3888 248.389 40.0202C248.246 40.4543 248.064 40.7964 247.896 41.1252C247.675 41.5199 247.402 41.9014 247.091 42.2434C246.766 42.5986 246.402 42.888 246.026 43.1248H246C245.571 43.3879 245.117 43.5852 244.624 43.7168C244.156 43.8352 243.676 43.9009 243.169 43.9009C242.572 43.9009 241.988 43.8088 241.442 43.6247C240.845 43.4273 240.313 43.1379 239.845 42.7564C239.287 42.2829 238.949 41.8225 238.599 41.3357C238.508 41.2042 238.404 41.0726 238.339 40.9805L230.392 30.8907L230.366 30.8644ZM80.628 36.9157L78.992 32.7193H65.0205L63.3844 37.0078C62.7352 38.6784 62.1898 39.8098 61.7354 40.4017C61.2809 40.9805 60.5408 41.2831 59.515 41.2831C58.6451 41.2831 57.866 40.9674 57.1908 40.3491C56.5156 39.7308 56.178 39.0204 56.178 38.218C56.178 37.7707 56.2559 37.284 56.4117 36.8104C56.5675 36.3237 56.8272 35.6397 57.1908 34.7714L65.9814 13.0264C66.2281 12.4081 66.5397 11.6583 66.8903 10.7769C67.2409 9.89551 67.6044 9.172 68.007 8.59319C68.4095 8.01437 68.9419 7.55394 69.5781 7.1856C70.2274 6.83042 71.0324 6.64625 71.9802 6.64625C72.9281 6.64625 73.7591 6.83042 74.4084 7.1856C75.0576 7.54078 75.59 8.00121 75.9795 8.56687C76.3691 9.13253 76.7066 9.73766 76.9923 10.3823C77.265 11.0268 77.6026 11.895 78.0311 12.9737L87.0164 34.5873C87.7176 36.2316 88.0682 37.4287 88.0682 38.1785C88.0682 38.9284 87.7306 39.6651 87.0683 40.3096C86.4061 40.9542 85.6011 41.2831 84.6662 41.2831C84.1209 41.2831 83.6534 41.191 83.2639 40.9937C82.8743 40.8095 82.5497 40.5464 82.277 40.2176C82.0173 39.8887 81.7187 39.3888 81.4201 38.7047C81.1214 38.0207 80.8487 37.4287 80.641 36.9157H80.628ZM66.8383 27.6283H77.1222L71.9413 13.8157L66.8513 27.6283H66.8383ZM69.5002 26.5101L74.3824 26.4707L72.0062 19.788L69.5002 26.5101ZM76.4599 38.5469V38.5732C76.4599 38.5732 76.4599 38.56 76.4599 38.5469ZM76.5119 38.6784V38.6521L76.421 38.4811L75.8886 37.113H68.1239L67.5784 38.5337V38.5732C67.3837 39.0599 67.2019 39.5072 67.0461 39.8755C66.8773 40.2702 66.7085 40.6517 66.5397 40.9937C66.3319 41.4278 66.1242 41.8093 65.9424 42.125C65.7217 42.5065 65.5139 42.8222 65.3061 43.0722C64.9555 43.5194 64.5401 43.9272 64.0727 44.2693C63.6052 44.6244 63.0858 44.9139 62.5145 45.1375C62.06 45.3085 61.5796 45.4532 61.0472 45.5453C60.5278 45.6374 60.0085 45.69 59.5021 45.69C58.4763 45.69 57.5024 45.5058 56.5935 45.1375C55.6846 44.7823 54.8536 44.243 54.0875 43.5326C53.698 43.1774 53.3603 42.8091 53.0877 42.4407C52.802 42.0592 52.5553 41.6383 52.3345 41.191C52.1138 40.7306 51.945 40.2439 51.8411 39.744C51.7242 39.2309 51.6594 38.7179 51.6594 38.2312C51.6594 37.9681 51.6593 37.7313 51.6853 37.5603C51.6853 37.455 51.7243 37.2182 51.7892 36.8631C51.8281 36.6263 51.8671 36.4026 51.919 36.1922C51.9839 35.9291 52.0359 35.7186 52.0878 35.5607V35.5212L52.1138 35.4949V35.5212C52.1528 35.4028 52.2047 35.245 52.2696 35.0608C52.2696 35.0608 52.3605 34.8372 52.5163 34.4162C52.7111 33.9032 52.7501 33.798 52.776 33.719C52.8539 33.5217 52.9318 33.3244 53.0097 33.1534L61.7874 11.4609C62.3587 10.0271 62.3457 10.0665 62.3717 9.9876C62.3976 9.92183 62.4236 9.86921 62.4496 9.80343C62.5275 9.61927 62.6054 9.42193 62.6833 9.21145C62.8261 8.84311 62.943 8.56686 63.0209 8.39585C63.1378 8.1196 63.2546 7.86967 63.3714 7.64603C63.4883 7.40924 63.6312 7.1593 63.8 6.88305C63.9558 6.61995 64.1116 6.38315 64.2544 6.17267C64.4492 5.89642 64.6699 5.62018 64.9036 5.34392C65.1373 5.06767 65.3841 4.81772 65.6437 4.59409C65.8775 4.38361 66.1501 4.17313 66.4488 3.96266C66.7215 3.76533 67.0201 3.58117 67.3447 3.41015C67.6953 3.21283 68.0718 3.04182 68.4614 2.89711C68.825 2.75241 69.2275 2.63401 69.643 2.54192C70.0196 2.463 70.3961 2.39722 70.7857 2.35776C71.1882 2.31829 71.5777 2.29198 71.9542 2.29198C72.3308 2.29198 72.7204 2.31829 73.1229 2.35776C73.5124 2.39722 73.889 2.463 74.2785 2.54192C74.72 2.63401 75.1225 2.75241 75.4861 2.89711C75.8627 3.04182 76.2392 3.21283 76.6028 3.41015C76.9144 3.58117 77.2 3.76532 77.4727 3.94949C77.7714 4.15997 78.0311 4.35729 78.2778 4.56777C78.5245 4.77825 78.7583 5.01504 79.005 5.29129C79.2517 5.56755 79.4724 5.83065 79.6542 6.0806L79.6931 6.14637C79.8619 6.39632 79.9917 6.59364 80.0826 6.73834C80.2255 6.96197 80.3423 7.17244 80.4721 7.38292C80.576 7.58024 80.6929 7.79073 80.7968 8.01437C80.8747 8.17223 80.9656 8.38271 81.0825 8.63265L81.1474 8.75104C81.2383 8.97467 81.3032 9.13254 81.3552 9.25093C81.4071 9.39564 81.407 9.36931 81.6148 9.89551C81.6148 9.89551 81.6148 9.89551 81.6148 9.92182C81.6148 9.92182 81.6148 9.90866 81.6148 9.89551C81.6148 9.92182 81.6797 10.0665 81.6148 9.92182C81.6408 10.0008 81.7317 10.2244 81.9654 10.7901C82.316 11.6583 82.0823 11.0663 82.2121 11.4083L91.1585 32.9429C91.3533 33.3902 91.5221 33.8374 91.6909 34.2847C91.8726 34.7583 92.0025 35.1661 92.1064 35.5212C92.2362 35.9817 92.3531 36.4421 92.431 36.8894C92.5089 37.3498 92.5479 37.7839 92.5479 38.1785C92.5479 38.6653 92.483 39.1652 92.3661 39.665C92.2492 40.1518 92.0934 40.6385 91.8727 41.0989C91.6519 41.5594 91.4182 41.9672 91.1585 42.3223C90.8729 42.717 90.5612 43.0722 90.2236 43.401C89.873 43.7431 89.4705 44.0719 89.016 44.3613C88.5875 44.6507 88.1331 44.8875 87.6657 45.0717C87.1852 45.269 86.6918 45.4137 86.1854 45.5058C85.679 45.5979 85.1596 45.6505 84.6402 45.6505C84.3935 45.6505 84.1079 45.6374 83.7963 45.5979C83.5106 45.5716 83.2379 45.5321 82.9523 45.4664C82.6406 45.4006 82.342 45.3216 82.0693 45.2296C81.5369 45.0454 81.0176 44.8086 80.5241 44.506C80.3294 44.3876 80.1086 44.2298 79.8619 44.0325C79.6542 43.8615 79.4464 43.6905 79.2517 43.4931C79.0439 43.2827 78.8621 43.0853 78.7063 42.888C78.5764 42.7301 78.4336 42.5328 78.2778 42.3092C78.135 42.0855 77.9921 41.8751 77.8752 41.6646C77.7843 41.5067 77.6805 41.3094 77.5636 41.0726C77.4727 40.8884 77.3688 40.6648 77.252 40.4149C77.1611 40.2044 77.0702 40.0071 76.9923 39.8361C76.8884 39.5993 76.8106 39.4283 76.8106 39.4283C76.7197 39.2309 76.6547 39.0731 76.6158 38.9678C76.5898 38.9021 76.5509 38.7968 76.4729 38.6258L76.5119 38.6784ZM78.2388 37.8497L78.2128 37.8102L77.2001 35.2187H66.7734L65.7606 37.876C65.4101 38.7837 65.0854 39.5467 64.7868 40.1781C64.4232 40.9279 64.0856 41.5067 63.761 41.9145C63.2546 42.5591 62.5924 43.059 61.7744 43.3747C61.0862 43.651 60.3201 43.7825 59.4761 43.7825C57.9309 43.7825 56.5546 43.2432 55.386 42.1513C54.8146 41.612 54.3731 41.0332 54.0615 40.3886C53.7369 39.6914 53.5681 38.9678 53.5681 38.218C53.5681 37.8891 53.6071 37.534 53.672 37.1393C53.7369 36.7447 53.8148 36.4026 53.9187 36.0869V36.0606C53.9966 35.8764 54.1134 35.5344 54.2952 35.0477C54.477 34.561 54.6458 34.1532 54.7756 33.8506V33.8769L63.5662 12.1318C63.9818 11.0794 64.0596 10.8953 64.1635 10.6585C64.2674 10.4086 64.3713 10.1586 64.4752 9.88236C64.6959 9.32985 64.9037 8.85627 65.1114 8.47478C65.3451 8.01435 65.5918 7.59341 65.8645 7.21192C66.1891 6.7515 66.5527 6.33054 66.9552 5.97535C67.3447 5.63333 67.7992 5.31761 68.3056 5.0282C68.8509 4.72564 69.4482 4.50201 70.0845 4.35731C70.6818 4.22576 71.318 4.15997 71.9672 4.15997C72.6165 4.15997 73.2527 4.22576 73.863 4.35731C74.5123 4.50201 75.1225 4.72564 75.6549 5.0282C76.1483 5.30445 76.6027 5.60702 76.9923 5.96221C77.4078 6.31739 77.7714 6.72518 78.083 7.15929C78.3297 7.52762 78.5634 7.89597 78.7712 8.27746C78.9659 8.61949 79.1477 9.01414 79.3425 9.4351L79.3685 9.46139C79.4724 9.72449 79.6411 10.1191 79.8359 10.619C80.1086 11.3162 80.2774 11.7372 80.4202 12.0924L89.3796 33.6532C89.7692 34.5478 90.0678 35.3502 90.2756 36.0343C90.5223 36.8631 90.6391 37.5734 90.6391 38.1785C90.6391 38.9152 90.4703 39.6256 90.1457 40.3228C89.847 40.9674 89.4186 41.5462 88.8862 42.0724C88.3149 42.6249 87.6787 43.0459 86.9515 43.3353C86.2374 43.6247 85.4713 43.7694 84.6662 43.7694C84.2377 43.7694 83.8093 43.7299 83.3808 43.6378C82.9263 43.5458 82.5108 43.4142 82.1342 43.23C81.7706 43.059 81.4331 42.8485 81.1085 42.5986C80.7838 42.3486 80.4981 42.0592 80.2514 41.7567C80.0307 41.4936 79.8229 41.1647 79.6022 40.7832C79.4334 40.4806 79.2516 40.1255 79.0569 39.6914C78.8621 39.2704 78.6933 38.8889 78.6154 38.7179C78.4855 38.4285 78.3557 38.1259 78.2388 37.8365V37.8497ZM116.258 2.48931C105.675 3.47593 97.3781 8.33008 95.9888 21.8665C95.7031 30.6145 98.4948 38.3101 106.74 42.2171C113.947 45.6374 120.711 45.5321 127.788 41.1647C133.151 36.1132 135.124 30.404 134.8 24.2475C134.579 20.4194 132.579 18.683 129.788 17.9068L119.997 18.0515C116.556 18.262 114.739 20.1695 115.297 24.5369C116.258 27.2468 118.842 28.7202 123.789 28.3781C123.451 31.0881 121.841 33.0876 118.946 34.4031C112.31 35.7712 108.376 32.9824 107.143 26.0234C106.636 18.3673 108.766 13.1974 114.258 12.4739C117.972 12.3029 120.984 12.9869 123.308 14.5129C125.243 15.7889 125.321 16.5387 128.035 15.9862C131.32 15.3153 133.501 12.3686 131.164 8.13276C127.632 4.2126 122.348 2.77871 116.258 2.47615V2.48931ZM94.0281 20.8404C93.1971 28.7991 95.4045 35.7186 101.183 41.4015C107.545 45.7558 114.752 48.6235 125.983 44.3613C132.839 40.6253 136.786 34.6267 136.514 25.3394C136.825 18.6567 134.086 18.3409 131.735 16.4466C133.917 14.0525 134.54 11.5267 133.592 8.85628C132.995 6.85673 131.138 5.29131 128.502 3.98897C123.607 1.56847 118.894 0.437135 113.44 1.05542C102.767 2.26567 95.2227 9.4877 94.0411 20.8272L94.0281 20.8404ZM123.308 12.0661C116.816 7.5671 110.311 10.9874 108.039 13.2105C105.52 16.0389 103.715 19.4591 104.701 25.6682C105.39 29.9962 106.649 33.4296 110.622 35.9554C113.843 38.0075 117.66 37.9286 122.14 35.4292C125.568 32.785 126.801 29.3121 126.529 25.2867H119.673C117.335 24.7868 116.491 21.1561 119.751 20.38L129.723 20.4457C131.917 21.2613 132.696 23.0504 132.047 25.7998C131.709 33.7453 128.71 39.2046 121.815 41.0463C112.453 43.7168 106.428 40.8621 101.91 35.4818C97.9884 29.6805 96.651 22.6821 100.988 13.0001C105.26 7.14614 110.817 4.47569 117.647 5.00188C122.997 5.90957 126.658 7.33031 128.632 9.26408C131.099 11.6714 128.217 15.3548 124.854 13.1053L123.295 12.0661H123.308ZM109.311 25.4841C109.83 29.1411 110.648 31.1801 114.323 32.6403C117.154 33.7585 119.543 32.7982 121.491 29.7594L118.66 29.6279C114.102 28.3913 112.752 25.3394 113.609 21.0377C114.765 17.7621 117.335 16.1441 121.335 16.1835C120.906 15.3811 119.751 14.7102 117.894 14.1972C111.609 13.5131 108.753 17.2754 109.311 25.4841Z" fill="#B62326"/>
<path d="M14.4344 52.5238V69.02H12.9022V60.9692H3.90392V69.02H2.37174V52.5238H3.90392V59.6669H12.9022V52.5238H14.4344ZM20.8358 57.7068V69.02H19.3945V57.7068H20.8358ZM21.1734 53.1552V55.2732H19.0439V53.1552H21.1734ZM34.8852 56.3255L34.7683 57.6147C34.1451 57.6147 33.6516 57.6936 33.2621 57.8515C32.9505 57.9831 32.6389 58.2067 32.3142 58.5092C33.1323 59.1538 33.5478 60.0352 33.5478 61.1534C33.5478 62.3636 33.0933 63.3239 32.1844 64.0212C31.4183 64.6 30.4574 64.8894 29.2888 64.8894C28.5876 64.8894 27.9514 64.771 27.3541 64.5342C26.588 64.9552 26.1985 65.4024 26.1985 65.876C26.1985 66.2838 26.3673 66.5601 26.6919 66.7048C27.0165 66.8495 27.6657 66.9547 28.6526 67.0599L30.9379 67.2836C32.509 67.4414 33.5997 67.7835 34.21 68.3097C34.6645 68.7043 34.8852 69.2437 34.8852 69.954C34.8852 70.9538 34.3658 71.7299 33.34 72.3087C32.3661 72.8349 31.0807 73.098 29.4446 73.098C27.7177 73.098 26.3932 72.8086 25.4713 72.243C24.6922 71.7431 24.3028 71.1117 24.3028 70.3224C24.3028 69.7567 24.5365 69.2437 25.0169 68.7964C25.4324 68.4017 25.9777 68.0992 26.6789 67.8755C25.4973 67.6256 24.913 67.0731 24.913 66.218C24.913 65.4813 25.4454 64.7447 26.5231 64.0343C25.5492 63.3503 25.0558 62.3899 25.0558 61.1665C25.0558 59.9431 25.5233 59.0223 26.4582 58.2988C27.2372 57.7068 28.1851 57.4042 29.3018 57.4042C30.1718 57.4042 30.9119 57.5753 31.5352 57.9304C31.9767 57.3253 32.483 56.8912 33.0414 56.6413C33.5348 56.4176 34.158 56.3124 34.8722 56.3124L34.8852 56.3255ZM29.3018 58.4303C28.4318 58.4303 27.7307 58.7066 27.1853 59.2459C26.6919 59.7458 26.4322 60.3904 26.4322 61.1929C26.4322 62.0874 26.7438 62.7846 27.3671 63.2976C27.8865 63.7054 28.5227 63.9159 29.2888 63.9159C30.1718 63.9159 30.8729 63.6397 31.4053 63.1135C31.8987 62.6136 32.1584 61.9821 32.1584 61.206C32.1584 60.2983 31.8468 59.5748 31.2106 59.0749C30.6912 58.654 30.0549 58.4435 29.3018 58.4435V58.4303ZM27.9124 68.165C26.3932 68.5728 25.6401 69.2305 25.6401 70.1645C25.6401 70.8485 26.0426 71.3616 26.8477 71.7168C27.5099 71.993 28.3929 72.1377 29.4966 72.1377C30.873 72.1377 31.9247 71.9273 32.6648 71.4931C33.2621 71.1248 33.5608 70.6775 33.5608 70.1382C33.5608 69.6383 33.34 69.27 32.8986 69.0069C32.4441 68.7569 31.665 68.5596 30.5873 68.4544L27.9124 68.1781V68.165ZM39.6506 52.2344V59.7721C40.962 58.2198 42.3643 57.4437 43.8446 57.4437C44.8833 57.4437 45.7014 57.7594 46.2987 58.404C46.831 58.9697 47.0907 59.7064 47.0907 60.614V69.0332H45.6365V61.2192C45.6365 59.5485 44.9223 58.7066 43.481 58.7066C42.1435 58.7066 40.8711 59.4959 39.6506 61.0613V69.02H38.2092V52.2344H39.6506ZM70.5279 71.309L70.3591 72.5982C69.6969 72.6902 68.9827 72.7297 68.2296 72.7297C67.074 72.7297 66.243 72.5455 65.7496 72.164C65.3341 71.8483 64.9705 71.2827 64.6848 70.4671L64.2433 69.3226C62.1528 69.2831 60.5038 68.4149 59.2703 66.7311C58.1666 65.2051 57.6082 63.2319 57.6082 60.8245C57.6082 58.0094 58.3484 55.7993 59.8416 54.2339C61.0751 52.9316 62.6333 52.2738 64.4771 52.2738C66.6456 52.2738 68.3595 53.1157 69.632 54.7996C70.7876 56.3255 71.359 58.3119 71.359 60.7719C71.359 63.2319 70.7617 65.3498 69.5671 66.9152C68.5673 68.2044 67.2948 68.9937 65.7496 69.27L66.0223 70.0592C66.23 70.6775 66.5157 71.0853 66.8792 71.2827C67.2039 71.4537 67.7102 71.5458 68.3984 71.5458C69.1645 71.5458 69.8787 71.48 70.5409 71.3221L70.5279 71.309ZM64.4771 53.5499C62.7891 53.5499 61.4776 54.2602 60.5168 55.6678C59.6468 56.9438 59.2183 58.654 59.2183 60.7851C59.2183 63.2319 59.7767 65.1262 60.8934 66.4417C61.8283 67.5467 63.0099 68.0992 64.4771 68.0992C66.1781 68.0992 67.5025 67.3888 68.4504 65.9418C69.3074 64.6394 69.7359 62.9293 69.7359 60.7851C69.7359 58.3382 69.1775 56.4702 68.0738 55.1679C67.1519 54.0892 65.9574 53.5499 64.4771 53.5499ZM84.1618 57.7068V69.02H82.7594V66.8626C82.24 67.6651 81.5648 68.2834 80.7468 68.7175C80.0326 69.099 79.3055 69.2963 78.5524 69.2963C77.5006 69.2963 76.6827 68.9937 76.0854 68.3754C75.527 67.8229 75.2413 67.0731 75.2413 66.1259V57.7068H76.7086V65.6918C76.7086 67.2573 77.4487 68.0465 78.929 68.0465C79.6432 68.0465 80.3832 67.7966 81.1233 67.2836C81.7725 66.8363 82.292 66.297 82.7205 65.6261V57.7068H84.1618ZM88.4856 60.3378C89.1738 58.404 90.706 57.4306 93.0562 57.4306C95.7959 57.4306 97.1724 58.6803 97.1724 61.1929V65.1788C97.1724 66.6916 97.2632 67.9676 97.458 69.02H96.1076C96.0167 68.5859 95.9258 67.9282 95.8479 67.0336C94.8221 68.5465 93.4328 69.2963 91.6539 69.2963C90.4204 69.2963 89.4724 68.9542 88.8362 68.257C88.2778 67.6782 88.0052 66.9284 88.0052 66.0076C88.0052 63.9554 89.3166 62.7188 91.9265 62.2979C92.9523 62.1269 94.2378 62.0085 95.783 61.9295V61.3244C95.783 60.2457 95.5493 59.509 95.0558 59.0749C94.6403 58.7066 93.9652 58.5224 93.0303 58.5224C91.3682 58.5224 90.3035 59.2854 89.836 60.7982L88.4856 60.3246V60.3378ZM95.783 62.9819C94.6274 62.9951 93.4328 63.1266 92.2382 63.3503C90.3814 63.7186 89.4465 64.5868 89.4465 65.9549C89.4465 66.6916 89.6802 67.2573 90.1736 67.6519C90.6021 68.0203 91.1865 68.1913 91.9136 68.1913C93.4718 68.1913 94.7702 67.3756 95.796 65.7444V62.9819H95.783ZM103.223 52.2344V69.02H101.782V52.2344H103.223ZM109.313 57.7068V69.02H107.872V57.7068H109.313ZM109.651 53.1552V55.2732H107.521V53.1552H109.651ZM115.974 53.6551V57.7068H118.896V58.8381H115.974V66.1917C115.974 67.5204 116.545 68.1913 117.701 68.1913C118.194 68.1913 118.701 68.1386 119.207 68.0203L119.103 69.1647C118.623 69.2437 118.065 69.2831 117.454 69.2831C115.507 69.2831 114.533 68.336 114.533 66.4548V58.825H112.533V57.6937H114.533V53.9577L115.974 53.6419V53.6551ZM130.335 57.7068L125.946 69.5988C125.453 70.9538 124.843 71.901 124.102 72.4403C123.492 72.8876 122.739 73.1112 121.817 73.1112C121.428 73.1112 121.09 73.0849 120.778 73.0191L120.661 71.7957C121.077 71.8878 121.467 71.9273 121.817 71.9273C122.531 71.9273 123.103 71.7036 123.557 71.2563C123.96 70.8617 124.323 70.2303 124.661 69.362L124.881 68.8227L120.739 57.7068H122.298L124.817 64.9946C124.972 65.4419 125.206 66.2049 125.505 67.2704H125.622C125.738 66.9547 125.868 66.5338 126.037 66.0076C126.206 65.4814 126.336 65.1262 126.388 64.942L128.855 57.7068H130.348H130.335ZM142.021 52.5238V67.7177H150.643V69.0069H140.489V52.5106H142.021V52.5238ZM162.913 57.7068V69.02H161.511V66.8626C160.992 67.6651 160.316 68.2834 159.498 68.7175C158.784 69.099 158.057 69.2963 157.304 69.2963C156.252 69.2963 155.434 68.9937 154.837 68.3754C154.279 67.8229 153.993 67.0731 153.993 66.1259V57.7068H155.46V65.6918C155.46 67.2573 156.2 68.0465 157.681 68.0465C158.395 68.0465 159.135 67.7966 159.875 67.2836C160.524 66.8363 161.044 66.297 161.472 65.6261V57.7068H162.913ZM169.003 52.2344V59.4827C169.925 58.1278 171.107 57.4437 172.548 57.4437C173.989 57.4437 175.145 58.0225 175.989 59.2065C176.755 60.272 177.131 61.6401 177.131 63.3371C177.131 65.284 176.612 66.81 175.586 67.9282C174.729 68.8622 173.665 69.3226 172.405 69.3226C170.938 69.3226 169.769 68.6254 168.899 67.2178L168.64 69.0463H167.549V52.2607H168.99L169.003 52.2344ZM169.003 60.9298V65.9023C169.873 67.3757 170.938 68.0992 172.21 68.0992C173.288 68.0992 174.145 67.6388 174.768 66.7048C175.353 65.8629 175.638 64.7315 175.638 63.3503C175.638 61.7717 175.288 60.5614 174.6 59.7195C174.015 59.0223 173.262 58.6671 172.34 58.6671C170.964 58.6671 169.847 59.417 168.99 60.9298H169.003ZM186.312 57.4437L186.195 58.8513C185.377 58.8513 184.624 59.1933 183.922 59.8774C183.273 60.5088 182.78 61.3507 182.442 62.4031V69.0332H181.027V57.72H182.403V60.6535C182.858 59.5353 183.468 58.6803 184.247 58.1278C184.883 57.6673 185.571 57.4437 186.312 57.4437ZM190.934 57.72V69.0332H189.493V57.72H190.934ZM191.272 53.1684V55.2863H189.142V53.1684H191.272ZM204.075 60.6798L202.659 61.0876C202.244 59.4169 201.257 58.5882 199.712 58.5882C198.569 58.5882 197.686 59.0618 197.063 59.9958C196.518 60.8377 196.245 61.9427 196.245 63.3371C196.245 64.9552 196.595 66.1917 197.31 67.0468C197.92 67.7703 198.712 68.1386 199.699 68.1386C201.335 68.1386 202.361 67.2967 202.776 65.5997L204.152 66.047C203.425 68.2044 201.945 69.2831 199.699 69.2831C198.102 69.2831 196.842 68.678 195.946 67.4809C195.154 66.4285 194.752 65.0604 194.752 63.3766C194.752 61.4428 195.271 59.93 196.31 58.8381C197.206 57.891 198.335 57.4306 199.699 57.4306C200.841 57.4306 201.802 57.7463 202.568 58.3645C203.27 58.917 203.776 59.6932 204.062 60.6667L204.075 60.6798ZM207.243 60.3509C207.931 58.4172 209.463 57.4437 211.813 57.4437C214.553 57.4437 215.929 58.6934 215.929 61.206V65.1919C215.929 66.7048 216.02 67.9808 216.215 69.0332H214.865C214.774 68.5991 214.683 67.9413 214.605 67.0468C213.579 68.5596 212.19 69.3094 210.411 69.3094C209.177 69.3094 208.23 68.9674 207.593 68.2702C207.035 67.6914 206.762 66.9415 206.762 66.0207C206.762 63.9685 208.074 62.732 210.684 62.311C211.71 62.14 212.995 62.0216 214.54 61.9427V61.3376C214.54 60.2589 214.306 59.5222 213.813 59.0881C213.385 58.7197 212.722 58.5356 211.787 58.5356C210.125 58.5356 209.061 59.2985 208.593 60.8114L207.243 60.3378V60.3509ZM214.54 62.9951C213.385 63.0082 212.19 63.1398 210.995 63.3634C209.139 63.7317 208.204 64.6 208.204 65.9681C208.204 66.7048 208.437 67.2704 208.931 67.6651C209.359 68.0334 209.944 68.2044 210.671 68.2044C212.229 68.2044 213.527 67.3888 214.553 65.7576V62.9951H214.54ZM221.941 57.72V59.8247C223.24 58.2461 224.655 57.4437 226.187 57.4437C227.239 57.4437 228.057 57.7594 228.641 58.404C229.174 58.9697 229.434 59.7064 229.434 60.6404V69.0332H227.979V61.2192C227.979 59.5485 227.265 58.7066 225.824 58.7066C224.473 58.7066 223.201 59.4959 221.993 61.0613V69.02H220.552V57.7068H221.941V57.72ZM236.043 53.6683V57.72H238.964V58.8513H236.043V66.2049C236.043 67.5335 236.614 68.2044 237.77 68.2044C238.263 68.2044 238.769 68.1518 239.276 68.0334L239.172 69.1779C238.692 69.2568 238.133 69.2963 237.523 69.2963C235.575 69.2963 234.601 68.3491 234.601 66.468V58.8381H232.602V57.7068H234.601V53.9708L236.043 53.6551V53.6683ZM249.897 60.1141L248.508 60.5877C248.066 59.2328 247.119 58.5487 245.664 58.5487C244.794 58.5487 244.106 58.7329 243.639 59.1144C243.223 59.4433 243.028 59.8511 243.028 60.3641C243.028 60.9955 243.236 61.4691 243.639 61.7717C244.002 62.0479 244.651 62.2847 245.573 62.482L246.508 62.6794C247.95 63.0082 248.936 63.4292 249.469 63.9554C249.962 64.429 250.209 65.113 250.209 65.9944C250.209 67.0336 249.793 67.8492 248.975 68.4544C248.196 69.0332 247.131 69.3094 245.794 69.3094C243.457 69.3094 241.925 68.4017 241.211 66.5732L242.6 66.047C243.119 67.4809 244.184 68.2044 245.807 68.2044C246.885 68.2044 247.677 67.9676 248.183 67.494C248.573 67.1257 248.781 66.6653 248.781 66.1259C248.781 65.4287 248.573 64.9157 248.17 64.6131C247.781 64.3237 247.067 64.0738 246.015 63.837L245.08 63.6265C243.704 63.3239 242.769 62.8898 242.262 62.3505C241.847 61.9032 241.639 61.2849 241.639 60.4956C241.639 59.5485 242.029 58.7855 242.782 58.2462C243.496 57.72 244.457 57.4569 245.677 57.4569C247.768 57.4569 249.17 58.3514 249.884 60.1273L249.897 60.1141Z" fill="#B62326"/>
</svg>
